<?xml version="1.0" encoding="utf-8"?>
<!-- Generator: Adobe Illustrator 24.0.1, SVG Export Plug-In . SVG Version: 6.00 Build 0)  -->
<svg version="1.1" id="Layer_1" xmlns="http://www.w3.org/2000/svg" xmlns:xlink="http://www.w3.org/1999/xlink" x="0px" y="0px"
	 viewBox="0 0 276 284" style="enable-background:new 0 0 276 284;" xml:space="preserve">
<style type="text/css">
	.st0{fill:#FFFFFF;}
</style>
<path class="st0" d="M13,243c0.4-1,0.4-1,0.8-1.9c3.2-7.8,6.8-15.2,10.9-22.5c3.2-6,6.2-12.1,9.2-18.2c2-4,4-8,6-12.1
	c0.8-1.7,1.7-3.4,2.5-5.1c16.9-33.8,16.9-33.8,33.8-67.6c0.4-0.9,0.9-1.8,1.3-2.7c0.9-1.8,1.8-3.6,2.7-5.3c1.9-3.9,3.9-7.7,5.8-11.6
	c3.8-7.6,7.7-15.1,11.6-22.7c4.6-8.7,9-17.4,13.4-26.2c0.6-1.2,1.2-2.3,1.8-3.6c2.4-4.8,4.8-9.6,7.2-14.5c1.2-2.4,2.4-4.9,3.6-7.3
	c1.1-2.3,2.2-4.5,3.3-6.8c0.8-1.5,0.8-1.5,1.5-3.1c0.4-0.9,0.9-1.8,1.3-2.7c2.8-4.8,4.6-5.6,10.3-5.8c4.2,1.2,6,5.5,8.1,9.1
	c0.7,1.4,1.4,2.7,2.1,4.1c0.4,0.7,0.8,1.5,1.2,2.2c3.7,7.1,7.1,14.3,10.5,21.5c4.6,9.8,9.6,19.5,14.7,29.1
	c5.9,11.1,11.5,22.4,16.9,33.8c3.5,7.4,7.1,14.6,11,21.8c3.7,6.9,7.2,13.9,10.7,21c1.4,2.7,2.7,5.4,4.1,8.2c0.7,1.4,1.4,2.7,2,4.1
	c1.5,3.1,3.1,6.2,4.7,9.2c0.8,1.6,0.8,1.6,1.7,3.2c0.5,0.9,1,1.8,1.5,2.7c1.2,3.1,1.4,5.4,1,8.6c-2.6,2.6-4.2,2.4-7.9,2.8
	C211.7,186.2,202,191,195,199c-8.1,11.1-12.8,25.2-11,39c0.9,3.7,1.9,7.3,3.1,11c0.9,3,0.9,3,0.9,7c-6.9-1-13.6-2.6-20.4-4.4
	c-0.8-0.2-1.5-0.4-2.3-0.6c-4.6-1.2-8-2.5-11.3-6c-2.5-5-3.6-9.5-3.9-15.1c-0.1-0.8-0.1-1.5-0.2-2.3c-0.2-2.5-0.4-5-0.5-7.5
	c-0.1-0.9-0.1-1.7-0.2-2.6c-1.2-16.8-1.5-33.6-1.1-50.5c-1-0.3-2-0.7-3-1c-0.3-6.9-0.7-13.9-1-21c2,0,4,0,6,0
	c-1.1-0.6-2.3-1.3-3.4-1.9c-2.3-1.6-3.4-2.5-4.2-5.2c-0.2-2.4-0.3-4.8-0.3-7.2c0-1.3,0-1.3,0-2.5c0-2.1,0-4.1,0-6.2
	c1.8,0.3,3.6,0.6,5.4,0.9c1,0.2,2,0.3,3,0.5c4.6,0.8,9.1,1.7,13.6,2.6c-0.7-0.4-1.3-0.9-2-1.4c-3-2-6-4.1-8.9-6.1
	c-1-0.7-2.1-1.4-3.2-2.1c-1-0.7-2-1.3-3-2c-0.9-0.6-1.8-1.2-2.8-1.9C142,111,142,111,141,110c-0.1-1.7-0.2-3.3-0.2-5
	c0-1-0.1-2-0.1-3.1c-0.1-2.2-0.1-4.3-0.2-6.5c0-1-0.1-2-0.1-3.1c0-0.9-0.1-1.9-0.1-2.9c-0.2-2.7-0.2-2.7-2.3-5.4
	c-2.2,3.3-2.2,4.2-2,8c0.3,16.1,0.3,16.1-3.1,21c-2.9,2-5.7,3.5-8.9,5c-2.3,1.4-4.5,3-6.7,4.5c-1.8,1.2-3.5,2.3-5.3,3.5
	c0.6-0.1,1.1-0.2,1.7-0.4c2.5-0.5,5.1-1.1,7.6-1.6c0.9-0.2,1.8-0.4,2.7-0.6c0.8-0.2,1.7-0.4,2.6-0.5c0.8-0.2,1.6-0.3,2.4-0.5
	c2.1-0.4,2.1-0.4,5.1-0.4c0,2.9,0,5.8-0.1,8.7c0,0.8,0,1.6,0,2.5c-0.2,6-0.2,6-2.6,8.5c-1.9,1.4-1.9,1.4-5.4,3.3c2,0,4,0,6,0
	c-0.1,2.5-0.3,5-0.4,7.6c0,0.7-0.1,1.4-0.1,2.1c-0.8,12.6-0.8,12.6-3.4,15.3c-0.2,2.3-0.2,2.3-0.1,5.1c0,1.6,0,1.6,0.1,3.3
	c0,1.2,0.1,2.4,0.1,3.7c0.2,13-0.7,25.9-1.9,38.9c-0.1,0.9-0.2,1.8-0.3,2.7c-0.2,2.6-0.5,5.2-0.8,7.8c-0.1,1.2-0.1,1.2-0.2,2.3
	c-0.5,4.6-1.3,8.2-3.9,12.2c-4.1,3.1-7.7,4.7-12.7,5.9c-0.6,0.2-1.3,0.3-1.9,0.5c-2.1,0.5-4.2,1-6.3,1.5c-1.5,0.4-3,0.7-4.5,1.1
	c-4,1-7.9,1.9-11.9,2.8c-3.9,0.9-7.9,1.9-11.8,2.8c-6.8,1.6-13.7,3.3-20.5,4.9c-4.7,1.1-9.4,2.3-14.2,3.4c-2.3,0.6-4.7,1.1-7,1.7
	c-1,0.3-2.1,0.5-3.1,0.8c-5.8,1.4-10.3,1.9-16.1,0.6c-3.7-3-5.7-5.2-6.4-9.9c0-5,2.8-9.1,5.1-13.5"/>
<path class="st0" d="M255.3,198.1c10,9.7,14.9,21.5,15.1,35.2c-0.1,13.2-4.3,24.9-13.3,34.8c-9.5,8.9-19.5,11.4-32.1,11.1
	c-11.4-0.6-18.6-6.4-26.2-14.5c-8.2-9.7-11.3-21.7-11-34.2c1.3-12.9,7.1-24.6,16.6-33.4C219.8,184.7,240.2,185.4,255.3,198.1z
	 M223,193c0,0.3,0,0.7,0,1c1.6,0,3.3,0,5,0c0-0.3,0-0.7,0-1C226.4,193,224.7,193,223,193z M208,200c-7.6,6.5-11.1,13.6-14,23
	c-0.3,1-0.7,2-1,3c-0.5,8.7-0.8,16.9,3,25c0.5,1.2,0.5,1.2,1.1,2.5c4,8.9,9.5,14,17.9,18.7c2.2,1,2.2,1,5-0.2
	c-0.7-0.4-1.3-0.7-2-1.1c-10.4-5.9-16.3-13.4-20.3-24.6c-1.3-6.5-2.8-15.6,0.5-21.6c4.3-4.1,10-5.7,15.8-5.8c5.8,1,9.5,3.3,14,7
	c1-0.3,2-0.7,3-1c-2.9-6.8-5.9-10.5-12.3-14.4c-5.7-1.3-11.5-0.1-16.7,2.4c4.6-9.3,11.4-14.4,21-18C217.3,192.8,212.6,196.8,208,200
	z M233,196c0.4,0.5,0.8,1,1.2,1.5c6.1,7.6,7.2,13.3,6.2,22.9c-0.5,2.7-1.4,5.1-2.5,7.6c1.3,0,2.6,0,4,0c4.4-4.5,6.3-9,6.4-15.2
	c-0.2-5.4-0.6-10.6-4.4-14.8C240.4,196.7,236.9,196.2,233,196z M262,218c-0.3,0.7-0.6,1.3-0.9,2c-2.6,5.6-4.7,9.6-10.1,13
	c-2.6,0.9-5.2,1.6-7.9,2.2c-0.7,0.3-1.4,0.5-2.1,0.8c-0.3,1-0.7,2-1,3c4.4,2.5,8.1,2.7,13,2c4.9-1.6,8.4-4.8,11.2-9
	c1.5-3.7,0.9-7.3-0.2-11C263.3,220,262.7,219,262,218z M221.6,241.1c-5,5.8-6.1,10.7-5.9,18.2c0.5,4.1,1.7,7.5,4.3,10.7
	c3.1,1.6,4.9,2.2,8.4,1.6c0.5-0.2,1.1-0.4,1.6-0.6c-0.6-0.6-1.2-1.2-1.8-1.9c-4.3-6.2-5.8-12.7-4.6-20.2c0.6-2.4,1.4-4.7,2.5-7
	c0-1,0-2,0-3C223.7,238.8,223.7,238.8,221.6,241.1z M234,242c0.3,6.3,1.4,10.5,6,15c3.8,2.7,7.1,3.9,11.7,4.6
	c4.3-0.7,5.7-2.2,8.3-5.6c0.7-1.7,1.4-3.3,2-5c-0.8,0.1-1.7,0.2-2.6,0.4c-11.3,1.3-11.3,1.3-16.8-2c-2.7-2.1-4.6-4.6-6.6-7.3
	C235.3,242,234.7,242,234,242z M224,274c4,1,4,1,4,1L224,274z M0,0 M0,0 M0,0"/>
</svg>
