<?xml version="1.0" encoding="utf-8"?>
<!-- Generator: Adobe Illustrator 24.0.1, SVG Export Plug-In . SVG Version: 6.00 Build 0)  -->
<svg version="1.1" id="Layer_1" xmlns="http://www.w3.org/2000/svg" xmlns:xlink="http://www.w3.org/1999/xlink" x="0px" y="0px"
	 viewBox="0 0 512 512" style="enable-background:new 0 0 512 512;" xml:space="preserve">
<style type="text/css">
	.st0{fill:#E1A730;}
</style>
<path class="st0" d="M0,11c95,0,171.9,0.1,256,38c1.4,0.6,1.4,0.6,2.8,1.2c32.5,14.6,63,33.8,90.6,56.4c1.5,1.2,3,2.4,4.5,3.6
	c6.9,5.5,13.3,11.5,19.7,17.5c2.6,2.4,5.2,4.8,8,7.1c3.2,2.8,5.9,5.8,8.7,9c2,2.2,4.1,4.3,6.2,6.4c4.1,4,7.7,8.3,11.3,12.8
	c1.9,2.3,3.8,4.5,5.7,6.7c16,18.2,29.7,39,41.6,60.1c0.5,0.9,1,1.8,1.5,2.7c14.1,25.1,25.3,51,34.5,78.3c0.4,1.1,0.7,2.1,1.1,3.2
	c9,26.9,14.4,54.7,17.9,82.8c0.1,0.9,0.2,1.9,0.4,2.8c1.9,16.1,1.8,32,1.6,48.2c-10.2,0-20.5,0-31,0c-0.1-4-0.2-8-0.4-12.1
	c-3.2-86.8-32.4-170.7-86.6-238.9c-1-1.3-1-1.3-2.1-2.7c-4-5.1-8.2-9.9-12.6-14.7c-1.3-1.4-2.6-2.9-3.8-4.3
	c-4.7-5.5-9.7-10.7-14.9-15.8c-1.4-1.4-2.8-2.8-4.2-4.3c-6.2-6.2-12.6-11.8-19.4-17.2c-1.1-0.9-2.2-1.9-3.3-2.8
	c-50-43.6-114.1-72-178.7-85.2c-0.9-0.2-1.9-0.4-2.9-0.6c-20.5-4.1-41.3-5.7-62.1-7.4c0,138.3,0,276.5,0,419
	c-11.9,0.3-23.8,0.7-36,1c2.3,1.6,4.6,3.3,7,5c4.2,4.9,4.6,10.8,4.4,17.1c-0.7,5.1-2.2,8.9-6.1,12.5c-6.4,4.8-12.4,5.1-20.3,4.4
	c-5.7-1.5-8.9-4.5-12.1-9.3c-3-5.6-2.9-13-1.3-19.1c2.5-5.6,4.6-6.5,10.4-10.6c-11.9-0.3-23.8-0.7-36-1C0,312.5,0,164,0,11z M30,41
	c0,128.7,0,257.4,0,390c9.9,0,19.8,0,30,0c0-128.7,0-257.4,0-390C50.1,41,40.2,41,30,41z"/>
</svg>
