<?xml version="1.0" encoding="utf-8"?>
<!-- Generator: Adobe Illustrator 24.0.1, SVG Export Plug-In . SVG Version: 6.00 Build 0)  -->
<svg version="1.1" id="Layer_1" xmlns="http://www.w3.org/2000/svg" xmlns:xlink="http://www.w3.org/1999/xlink" x="0px" y="0px"
	 viewBox="0 0 512 512" style="enable-background:new 0 0 512 512;" xml:space="preserve">
<style type="text/css">
	.st0{fill:#E1A730;}
</style>
<path class="st0" d="M256-0.5c1,0,1,0,2,0c3.2,0.8,4.2,1.8,6,4.5c0.5,3.4,0.4,6.8,0.2,10.2c0,0.9,0,1.9-0.1,2.8
	c0,2.3-0.1,4.6-0.2,6.9c0.8,0,1.6,0,2.4-0.1c8-0.1,15.6,0.5,23.5,1.7c1.7,0.3,1.7,0.3,3.5,0.5C339,33.5,378.2,54.2,413,84
	c3.4-1.5,5.5-3.3,8-6c2.5-2.7,4.6-4.7,8-6c4.2,0.1,6.3,0.4,9.5,3.1c1.5,2.9,1.5,2.9,1.7,6.2c-1.6,5-4.5,8-8.2,11.7
	c-0.8,0.8-1.6,1.7-2.4,2.5c-0.5,0.5-1,1-1.6,1.5c1.3,2.7,2.7,5,4.6,7.3c0.5,0.6,1,1.2,1.6,1.9c0.6,0.7,1.1,1.3,1.7,2
	c31.6,38.3,53.7,89.6,52.1,139.9c0.6,0,1.2,0,1.8-0.1c2.7-0.1,5.3-0.1,8-0.2c0.9,0,1.8-0.1,2.8-0.1c6.8-0.1,6.8-0.1,10.1,2.1
	c1.5,2.3,1.9,3.5,1.9,6.2c0,0.7,0,1.3,0,2c-0.8,3.2-1.8,4.2-4.5,6c-3.4,0.5-6.8,0.4-10.2,0.2c-0.9,0-1.9,0-2.8-0.1
	c-2.3,0-4.6-0.1-6.9-0.2c0,0.8,0,1.6,0.1,2.4C488.8,320.7,463.2,373,428,413c1.5,3.6,3.6,5.6,6.6,8.2c5,4.9,5,4.9,5.8,9
	c-0.3,3.8-0.3,3.8-1.9,6.7c-3,2.5-4.5,3.1-8.4,3.1c-6.4-2-10.6-7.3-15-12c-2.7,1.3-5,2.7-7.3,4.6c-0.6,0.5-1.2,1-1.9,1.6
	c-1,0.8-1,0.8-2,1.7c-38.3,31.6-89.6,53.7-139.9,52.1c0,0.6,0,1.2,0.1,1.8c0.1,2.7,0.1,5.3,0.2,8c0,0.9,0.1,1.8,0.1,2.8
	c0.1,6.8,0.1,6.8-2.1,10.1c-2.3,1.5-3.5,1.9-6.2,1.9c-0.7,0-1.3,0-2,0c-3.2-0.8-4.2-1.8-6-4.5c-0.5-3.4-0.4-6.8-0.2-10.2
	c0-0.9,0-1.9,0.1-2.8c0-2.3,0.1-4.6,0.2-6.9c-1.2,0-1.2,0-2.4,0.1c-8,0.1-15.6-0.5-23.5-1.7c-1.2-0.2-2.3-0.4-3.5-0.5
	c-45.6-7.3-84.8-28-119.6-57.8c-3.6,1.5-5.6,3.6-8.2,6.6c-4.9,5-4.9,5-9,5.8c-3.8-0.3-3.8-0.3-6.7-1.8c-2.7-3.3-3.1-5.3-3.1-9.5
	c2-3.9,4.5-6.8,7.7-9.8c0.8-0.8,1.6-1.6,2.4-2.4c0.6-0.6,1.2-1.2,1.9-1.8c-1.3-2.7-2.7-5-4.6-7.3c-0.5-0.6-1-1.2-1.6-1.9
	c-0.6-0.7-1.1-1.3-1.7-2C44.5,365.6,22.5,314.3,24,264c-0.6,0-1.2,0-1.8,0.1c-2.7,0.1-5.3,0.1-8,0.2c-0.9,0-1.8,0.1-2.8,0.1
	c-6.8,0.1-6.8,0.1-10.1-2.1c-1.5-2.3-1.9-3.5-1.9-6.2c0-1,0-1,0-2c0.8-3.2,1.8-4.2,4.5-6c3.4-0.5,6.8-0.4,10.2-0.2
	c0.9,0,1.9,0,2.8,0.1c2.3,0,4.6,0.1,6.9,0.2c0-0.8,0-1.6-0.1-2.4c-0.1-8,0.5-15.6,1.7-23.5c0.2-1.2,0.4-2.3,0.5-3.5
	C33.2,174.8,53,131.1,84,99c-1.5-3.4-3.3-5.5-6-8c-2.7-2.5-4.7-4.6-6-8c0.1-4.2,0.4-6.3,3.1-9.5C78,72,78,72,81.3,71.8
	c5,1.6,8,4.5,11.7,8.2c0.8,0.8,1.6,1.6,2.5,2.4c0.5,0.5,1,1,1.5,1.6c3.6-1.6,6.2-3.8,9.2-6.4c38.3-32.5,91-55.2,141.8-53.6
	c0-0.6,0-1.2-0.1-1.8c-0.1-2.7-0.1-5.3-0.2-8c0-0.9-0.1-1.8-0.1-2.8c-0.1-6.8-0.1-6.8,2.1-10.1C252.1-0.1,253.3-0.5,256-0.5z
	 M216,44c-0.8,0.2-1.7,0.3-2.6,0.5C175,52.4,137.9,70.1,110,98c40.9,40.9,81.8,81.8,124,124c4.5-2,4.5-2,9-4
	c12.5-3.4,24-1.9,35.3,4.3c9.2,5.8,14.4,14.9,17,25.4c2,11.3-0.3,22.3-6.6,31.9c-6.7,8.7-15.2,14-26.1,15.9
	c-11.8,1.2-21.7-1.1-31.7-7.6c-7.2-6.4-11.9-13.6-14-23c-0.6-9.5-0.9-18.1,3.1-26.9c1.1-2.2,1.1-2.2,0.9-5.1
	c-1.2-1.7-1.2-1.7-2.9-3.3c-1-1-1-1-1.9-1.9c-0.7-0.7-1.4-1.4-2.1-2.1c-0.7-0.7-1.4-1.4-2.2-2.1c-2.3-2.3-4.6-4.5-6.8-6.8
	c-1.5-1.5-3.1-3.1-4.6-4.6c-3.8-3.8-7.6-7.5-11.4-11.2c-13.6,13.4-20,32.4-20.5,51.2c-0.2,26.1,8.1,47.2,26,66.4
	c17.5,17.2,39.9,24.7,64.1,24.8c23.4-0.3,44.1-10.5,60.8-26.7c17.9-19,24.6-41.9,24-67.4c-1-20.2-9.8-38.5-23.4-53.3
	c-0.9-1.1-0.9-1.1-1.9-2.1c-7.9-8.6-19.4-15.4-30.1-19.9c-0.7,0-1.3,0-2,0c-0.3,0.6-0.5,1.1-0.8,1.7c-4.1,8.1-9.9,14.2-18.4,17.6
	c-9.5,2.3-20.3,1.8-28.7-3.3c-7.1-4.7-11-10.8-13.6-18.9c-2.1-10.9,0.2-20.1,6.2-29.3c4.4-5.5,11.5-9.5,18.4-10.8
	c10.6-0.9,19.9,0.4,28.4,7.2c4.7,4.4,7.9,9.7,9.4,15.9c1,3.1,1,3.1,3.8,4.3c1.6,0.5,1.6,0.5,3.2,1c11.3,3.9,21.1,9.9,30.2,17.6
	c1,0.8,1,0.8,2,1.6c16,13.2,25.6,32.7,31,52.4c0.2,0.8,0.4,1.6,0.7,2.4c6.1,25.7,1.2,54.6-12.6,76.9c-3.1,4.8-6.5,9.3-10.1,13.7
	c-0.5,0.6-0.9,1.3-1.4,1.9c-13.4,17.4-37.8,28.9-59,32.6c-16.8,2.1-34.4,1.7-50.6-3.5c-1-0.3-1-0.3-2-0.6
	c-15.6-5.2-28.5-13.7-40-25.4c-0.9-0.9-1.7-1.7-2.6-2.6c-10.5-10.9-17.7-24-22.4-38.4c-0.3-1-0.3-1-0.6-2c-6-19.6-5.7-42.6,0.6-62
	c0.2-0.6,0.4-1.3,0.6-2c4.2-12.5,11.1-23.2,18.4-34c-10.6-10.6-21.1-21.1-32-32c-3.8,1.3-5.3,3.5-7.6,6.6c-0.4,0.6-0.9,1.2-1.3,1.8
	c-12.9,17.4-21.7,36.6-27,57.6c-0.3,1.3-0.7,2.5-1,3.9c-5.5,24.9-3.3,53.3,5,77.1c1,0,1.9,0.1,2.9,0.1c10.5,0.5,19.6,1.7,27.5,9.2
	c6.2,7.2,9,15.7,8.8,25.1c-0.7,7.1-3,13-7.3,18.6c7.5,18.7,35.9,32.4,53,40c6.9,2.8,13.8,5.1,21,7c0.8,0.2,1.6,0.4,2.4,0.7
	c38.9,10.4,79.2,1.3,113.8-17.5c1.9-1.2,3.3-2.5,4.8-4.1c-0.3-0.7-0.6-1.4-1-2.1c-3.2-8.7-2.6-18,1.1-26.4c4-7.6,9.8-12.4,17.7-15.6
	c3.6-1,6.8-1.1,10.5-1.1c1.2,0,2.5,0,3.8,0c4.2,0.3,7.8,1.1,11.9,2.3c8.1-13.8,14.8-27.3,19.3-42.7c0.2-0.8,0.5-1.7,0.7-2.5
	c3.4-12.2,4.3-24.1,4.2-36.6c0-2.4,0-4.8,0-7.1c0-7.9-0.2-15.4-2.3-23c-0.8-0.1-1.7-0.2-2.6-0.3c-9.9-1.3-17.2-3.5-24.4-10.7
	c-5.7-8.4-8.1-16.9-7-27c1.8-7.4,4.7-12.6,10-18c-1.4-4.4-3.9-7.6-6.9-11.1c-0.5-0.6-1-1.1-1.5-1.7c-27.5-31.5-64.4-50.5-106.2-53.8
	c-16.4-1.1-32.4,0.6-48.3,4.9c-5.3,1.4-10.6,2.5-16.1,1.7c-3-2-3-2-3.8-5.4c-0.2-3.6-0.2-4.7,1.8-7.6c12.1-7,31.4-9.1,45.1-9.2
	c1.1,0,1.1,0,2.3,0c31.7-0.2,31.7-0.2,45.6,3.2c0.8,0.2,1.7,0.4,2.5,0.6c12.8,3.1,24.7,7.6,36.5,13.4c0.7,0.3,1.3,0.6,2,1
	c13.2,6.5,24.9,14.7,35.6,24.8c2,1.8,3.9,3.5,6,5.2c5.8,4.9,10.5,11.2,14.6,17.4c3.5,5.8,3.5,5.8,8.9,9.3c2.2,0,2.2,0,4.4-0.4
	c6.3-0.7,12.7,1.9,17.8,5.6c7.6,6.4,11.7,13.2,13,23.2c0.4,9.4-1.8,17.4-8,24.6c-1.1,1.2-2.2,2.3-3.4,3.4c-0.7,0.7-1.3,1.3-2,2
	c0.2,2.7,0.2,2.7,0.9,5.9c1.4,9,1.5,17.9,1.5,27.1c0,0.9,0,1.7,0,2.6c0,13.5-0.8,26.3-4.4,39.4c-0.2,0.7-0.4,1.4-0.6,2.2
	c-1.3,4.7-2.8,9.3-4.4,13.8c-0.4,1-0.4,1-0.8,2.1c-4.5,12-10.1,23.3-17.2,33.9c0.3,3.1,0.9,5.8,2,8.8c2.5,8.3,1.8,17.3-1.8,25
	c-0.4,0.7-0.8,1.4-1.2,2.2c-0.3,0.6-0.7,1.3-1,2c-4,6.5-10.9,10.4-18.1,12.4c-8.5,1.4-13.8,0.2-21.8-2.7c-5.5-1.2-9.2,2-13.8,4.6
	c-13.6,7.9-28,13.5-43.2,17.5c-0.7,0.2-1.4,0.4-2.1,0.6c-12.8,3.2-25.5,3.9-38.6,3.9c-0.8,0-1.6,0-2.4,0c-11.9,0-23.3-0.5-34.9-3.3
	c-0.7-0.2-1.5-0.3-2.2-0.5c-30-7-67.1-24.4-84.8-50.8c-1.2-1.7-1.2-1.7-3-2.7c-3.3-0.1-6.4,0.3-9.6,0.7c-7.9,0.7-14.7-2.1-20.7-7.1
	c-6.6-6.1-9.9-12.6-11.1-21.6c-0.3-7.2,1-13.6,4.4-20c1.5-1.6,1.5-1.6,2.9-2.9c2.3-2.8,2.3-2.8,1.9-5.5c-0.8-3.2-1.8-6.4-2.8-9.6
	c-9.1-33.1-7.9-68.8,4-101c0.2-0.7,0.5-1.3,0.7-2c6.7-17.9,15.9-33.4,27.9-48.2c1.5-1.9,2.9-3.8,4.4-5.7c-10.9-10.9-21.8-21.8-33-33
	c-21.9,21.9-37.2,49.7-47,79c-0.3,0.8-0.6,1.7-0.9,2.5C37.5,230.2,37.6,270.7,47,310c0.2,0.8,0.4,1.5,0.6,2.3
	c9,36.7,29.8,68.5,55.4,95.7c0.8,0.9,1.6,1.7,2.4,2.6c6.6,6.9,13.9,12.7,21.6,18.4c1,0.8,2,1.5,3,2.3c15.4,11.1,32.2,20.1,50,26.7
	c0.7,0.3,1.5,0.6,2.2,0.8c54.2,20,113.7,16.4,166-7.5c52.5-24.8,91.9-70.5,111.8-124.6c6.6-19,11-39.2,11.2-59.4c0-1.2,0-1.2,0-2.4
	c0.3-34.8-4.4-67.1-19.3-98.8c-0.5-1-0.5-1-1-2.1C427.3,113,382.9,72.7,330.2,53.4C317.4,49,304.4,45,291,43
	c-1.1-0.2-2.3-0.3-3.5-0.5c-10.4-1.5-20.7-1.8-31.2-1.8c-1.2,0-1.2,0-2.5,0C241,40.7,228.6,41.3,216,44z M245.4,151.5
	c-4.1,4.8-4.8,7.9-4.7,14c0.6,5,3.3,7.6,6.9,10.9c4.6,2.2,8.4,2.4,13.4,1.6c4.8-2.3,7.7-5.2,10-10c0.8-5,0.6-8.8-1.6-13.4
	c-3.4-3.7-6.5-6-11.2-7.6C253.3,147,249,148.1,245.4,151.5z M390.4,184.8c-3,4.4-4.3,7.8-3.4,13.2c1.9,5.3,4.2,8.9,9,12
	c4.4,1.5,8.6,1.9,12.9,0.3c4.3-2.2,7-4.8,9.1-9.3c0.8-4.9,0.7-9.4-1.6-13.9c-3.4-4.5-6.7-7-12.2-8.1
	C398.5,178.6,394.1,180.6,390.4,184.8z M247,235c0.4,0.4,0.9,0.9,1.4,1.3c2,2,4.1,4,6.1,6c0.7,0.7,1.4,1.4,2.1,2.1
	c0.7,0.7,1.3,1.3,2,2c0.6,0.6,1.2,1.2,1.9,1.9c2.8,3,2.8,5.6,2.7,9.7C263,260,263,260,262,262c-3.4,1.7-6.4,1.9-10,1
	c-3.1-1.9-5.5-4.4-8-7c-0.8-0.8-1.7-1.6-2.5-2.5c-2.2-2.2-4.3-4.3-6.5-6.5c-3.1,4.7-2.5,9.5-2,15c1.8,6.6,6.4,11.2,12,15
	c6,2.9,12.9,3.1,19.3,1.4c6.1-2.7,10.9-7.8,13.9-13.8c1.9-6,1.9-13.1-0.7-18.9c-3.5-5.9-8.9-10.6-15.5-12.7c-3-0.3-3-0.3-6.1-0.2
	c-1,0-2.1,0-3.1,0C249.8,232.8,249.8,232.8,247,235z M106.7,325.5c-2.8,4.3-3.7,8.4-2.7,13.5c1.9,5.3,4.9,8.4,10,11
	c4.9,1.5,8.3,0.9,13-1c3.9-3.2,6.4-6.3,8-11c0.4-5.2-0.5-8.9-3.8-12.9c-2.7-2.9-5.3-4.8-9.3-5.4
	C115.6,319.6,110.9,320.6,106.7,325.5z M354.7,359.2c-2.3,3.9-3,7.3-2.7,11.8c1.3,4.6,3.3,7.4,6.9,10.4c5,2.5,8.3,3,13.7,1.5
	c4.7-1.7,6.7-3.8,9.4-7.9c1.5-4.4,1.8-8.6,0.4-12.9c-2.3-4.6-5.4-7.4-10.4-9.1C364.4,351.7,360.2,354,354.7,359.2z"/>
<path class="st0" d="M179,109c2.9,1.4,2.9,1.4,5,4c0.7,3.1,0.7,5.9,0,9c-2.5,3.1-4.1,3.8-8,4.5c-3.9-0.7-5.5-1.4-8-4.5
	c-0.7-3.1-0.7-5.9,0-9C171.2,109.1,174,108.2,179,109z"/>
</svg>
