<?xml version="1.0" encoding="utf-8"?>
<!-- Generator: Adobe Illustrator 24.0.1, SVG Export Plug-In . SVG Version: 6.00 Build 0)  -->
<svg version="1.1" id="Layer_1" xmlns="http://www.w3.org/2000/svg" xmlns:xlink="http://www.w3.org/1999/xlink" x="0px" y="0px"
	 viewBox="0 0 512 512" style="enable-background:new 0 0 512 512;" xml:space="preserve">
<style type="text/css">
	.st0{fill:#E1A730;}
</style>
<path class="st0" d="M174.8,155.2c1,0,2.1,0.1,3.2,0.1c3.4,0.1,7,0.2,10.4,0.3c2.5,0.1,4.9,0.1,7.5,0.2c4,0.1,8,0.2,12,0.5
	c11.1,0.3,22.1,0.7,33.3,1c0.8,0,1.7,0,2.5,0.1c4.2,0.1,8.5,0.2,12.7,0.3c8,0.2,16.1,0.5,24.2,0.7c1.4,0,2.9,0.1,4.2,0.1
	c1.3,0,2.6,0.1,3.9,0.1c1.7,0,1.7,0,3.4,0.1c2.2,0.1,4.2,0.2,6.4,0.5c9.1,0.2,17.6-7.6,24.4-12.5c1.1-0.8,2.3-1.6,3.4-2.4
	c3.7-2.6,7.3-5.2,11-7.8c4.8-3.4,9.5-6.8,14.3-10.2c1.1-0.8,2.3-1.6,3.6-2.5c7.9-5.6,15.7-11.1,23.8-16.5c1.5-1,1.5-1,3-2.1
	c0.9-0.6,1.8-1.3,2.8-1.8c0.8-0.6,1.6-1,2.4-1.6c19.4-12.7,46.5-14.8,69.1-11.5c7.5,2,13.4,5.7,18,12c5.5,9.8,5.7,18.4,3.2,29
	c-5,9.8-14.5,15.7-23.3,21.8c-1.4,0.9-2.6,1.8-4,2.9c-2.9,2.1-5.7,4-8.6,6c-4.6,3.2-9.1,6.3-13.5,9.5c-14.1,10-28.2,19.7-42.8,29
	c-32.1,18.4-32.1,18.4-50.8,48.4c-1.1,5.3-1.8,10.6-2.3,15.9c-0.7,6.1-2.4,11.7-4.2,17.6c-0.6,2.1-1.1,4-1.7,6.1
	c-0.2,0.9-0.6,2-0.8,3c-1.5,5.2-3,10.2-4.5,15.4c-0.3,1-0.6,2.1-0.9,3.1c-2.4,8.1-4.7,16.3-7,24.4c-0.7,2.5-1.4,4.9-2.2,7.5
	c-1.4,4.7-2.8,9.5-4.1,14.2c-1.5,5.3-3,10.4-4.6,15.7c-0.5,1.7-1,3.4-1.5,5.2c-0.6,2.1-1.3,4.1-1.8,6.2c-0.3,1-0.7,2.2-0.9,3.2
	c-3,7.1-8.1,11.2-14.3,15.5c-0.7,0.5-1.5,1-2.3,1.5c-7,4.6-13.1,8.3-21.7,7.1c-6-2.6-9.3-4.7-12-10.8c-2.3-7.3-2-14.8-2-22.4
	c0-1.6,0-3.2,0-4.9c0-4.4,0-8.7,0-13.1c0-4.5,0-9-0.1-13.5c0-0.9,0-1.8,0-2.8c0-1.8,0-3.6,0-5.4c0-2.6,0-5.4,0-8
	c-0.1-10.4-0.2-21-0.5-31.4c0-1.7,0-1.7-0.1-3.6c-0.1-4.4-0.2-8.7-0.3-13.1c-0.1-2.9-0.1-5.7-0.2-8.6c0-0.8-0.1-1.6-0.1-2.4
	c-0.1-5.2,0.7-9.6,2.3-14.6c2.6-2.5,4.8-3.2,8.4-4c4.1,0.8,6.2,1.6,8.7,5c2.1,5.2,2,9.9,2,15.5c0,1.7,0,1.7,0,3.6
	c0,3.9,0.1,7.8,0.1,11.7c0,2.8,0,5.4,0.1,8.1c0,5.7,0.1,11.5,0.1,17.2c0.1,9.2,0.2,18.4,0.3,27.5c0,1.5,0,3,0.1,4.6
	c0,3,0.1,6,0.1,8.8c0.1,7,0.2,14,0.3,21c0,2.4,0.1,4.7,0.1,7.1c0,1.6,0,3.3,0.1,4.9c3.2-1,5.5-2.3,8.4-4.2c0.9-0.6,1.7-1.1,2.6-1.7
	c2.8-2.8,2.3-4.4,2.4-8.3c0.6-2.2,1.1-4.5,1.8-6.7c0.3-1.3,0.8-2.5,1.1-3.8c0.5-1.4,0.8-2.6,1.3-4c0.8-2.8,1.7-5.6,2.5-8.4
	c0.5-1.4,0.8-2.8,1.3-4.1c1.4-4.5,2.6-9,3.8-13.5c5.6-20.7,11.6-41.2,17.6-61.7c1.7-6,3.4-11.9,5-17.8c0.9-3.1,1.7-6.1,2.6-9.2
	c0.6-2.2,1.3-4.4,1.8-6.5c0.6-2,0.6-2,1.1-4c0.3-1.1,0.7-2.3,1-3.6c0.3-1.1,0.7-2.2,1-3.3c0.2-1.1,0.6-2.3,0.8-3.4
	c2.6-5.2,6.7-7.7,11.4-11c1.5-1.1,1.5-1.1,3.1-2.3c3.4-2.5,7-5,10.6-7.6c1.3-0.9,2.6-1.8,3.9-2.8c8.6-6.1,17.2-12.3,25.8-18.4
	c4.7-3.3,9.4-6.7,14-9.9c24.7-17.4,24.7-17.4,36.8-25.9c3.7-2.5,7.2-5,10.9-7.6c2.3-1.6,4.7-3.2,7-4.8c1.4-0.9,2.8-2,4.1-2.9
	c1.1-0.8,2.3-1.6,3.4-2.4c2.9-2.5,3.7-4,4.5-7.8c-0.7-2.6-0.7-2.6-2.1-5c-0.5-0.8-0.8-1.6-1.3-2.5c-0.3-0.6-0.7-1.3-1-1.8
	c-12-1.1-20.3,6.8-29,14c-4.6,3.7-7.8,6.2-13.9,6.2c-3.1-0.8-3.1-0.8-5.9-2.9c-1.8-3.6-3.1-7.2-2.5-11.2c-18.2,12-36,24.6-53.8,37.3
	c-5.9,4.2-11.8,8.4-17.7,12.6c-2.3,1.6-4.5,3.2-6.8,4.8c-13.9,9.9-27.8,19.7-41.7,29.5c-1.1,0.8-2.3,1.6-3.4,2.4
	c-4.7,3.3-9.4,6.7-14.2,10c-9.2,6.4-18.2,12.9-27.4,19.4c-2.4,1.7-4.7,3.3-7.1,5c-9.3,6.5-9.3,6.5-18.5,13.1c-1.5,1-2.9,2.1-4.4,3.1
	c-0.7,0.5-1.4,1-2.2,1.5c-5.5,3.9-11,7.8-16.5,11.7c-4.1,2.9-8.1,5.9-12.3,8.7c-2.6,2-5.4,3.8-8,5.7c-1.8,1.3-3.7,2.6-5.5,3.9
	c-11,7.8-22.4,13.9-36.4,12.2c-5.9-1.4-11.2-3.6-16.8-5.9c-2.6-1-5.4-2.1-8-3.1c-1.3-0.5-2.4-0.9-3.7-1.4c-1.1-0.5-2.3-0.9-3.6-1.4
	c-1.8-0.8-1.8-0.8-3.7-1.6c-1-0.3-2.2-0.7-3.2-0.9c-3.9,2.1-3.9,2.1-6.9,4.7c2.6,3.3,5.2,5.7,8.7,8c0.9,0.6,1.8,1.1,2.8,1.8
	c0.9,0.6,2,1.3,2.9,1.8c2,1.3,3.9,2.6,5.9,3.9c0.9,0.6,2,1.3,2.9,2c3.3,2.2,6.5,4.6,9.6,6.9c14,10.1,29.1,14.2,46.5,13
	c17.4-2.9,30.9-11.9,44.9-22.1c1-0.8,1-0.8,2.2-1.5c2-1.4,3.8-2.8,5.7-4.2c3.3-2.2,6.1-3.6,10-4.4c4.9,1.5,6.8,2.8,9.2,7.2
	c0.7,5.2-0.3,6.9-3.1,11.2c-2.4,2.1-4.6,3.8-7.2,5.6c-0.7,0.5-1.4,0.9-2.1,1.5c-2.2,1.5-4.5,3.1-6.7,4.6c-1.5,1-3,2.1-4.5,3.1
	c-1.5,1-2.9,2-4.4,3c-1,0.7-1,0.7-2.1,1.4c-20.3,13.8-44.1,17.9-67.9,13.5c-20.5-4.2-36.8-17.3-53.4-29.5c-2.4-1.8-4.8-3.6-7.3-5.4
	c-1.5-1-2.9-2.1-4.4-3.2c-0.7-0.5-1.4-0.9-2.1-1.5c-6.4-4.7-8.5-8.5-10.2-16.3c0.8-6.5,3.4-10.7,8.4-14.8
	c15.3-11.9,15.3-11.9,24-11.6c4.4,1,8.3,2.6,12.3,4.4c2.5,1,5.2,2,7.7,3c1.3,0.5,2.5,1,3.9,1.5c13.4,5.4,13.4,5.4,27.4,3.7
	c6.3-2.9,11.8-7.1,17.4-11.1c1.4-1,2.8-2,4.2-3c3-2.1,6-4.2,9-6.4c4.7-3.3,9.4-6.7,14-10.1c4.8-3.4,9.6-6.9,14.5-10.3
	c15.8-11.4,31.9-22.6,47.8-33.7c3.3-2.4,6.8-4.7,10.1-7.1c6.1-4.2,12.3-8.6,18.4-12.9c-2.2-0.1-4.5-0.1-6.7-0.2
	c-2.1-0.1-4-0.1-6.1-0.2c-5.9-0.2-11.7-0.3-17.6-0.5c-12-0.3-24-0.7-36-1.3c-5.5-0.2-11-0.5-16.5-0.7c-2.6-0.1-5.4-0.2-8-0.3
	c-3.8-0.2-7.6-0.3-11.4-0.5c-1.1-0.1-2.2-0.1-3.3-0.2c-8.5-0.2-13.5,2.5-20.1,7.8c-0.6,0.6-1.1,1.1-1.8,1.8c1.6,0.6,1.6,0.6,3.2,1.1
	c4,1.4,7.9,2.8,11.9,4.1c1.7,0.6,3.6,1.3,5.3,1.8c2.6,0.9,5.2,1.8,7.8,2.8c0.8,0.2,1.6,0.6,2.4,0.8c10,3.6,10,3.6,12.7,9.4
	c0.8,4,0.8,4-0.1,7.1c-2.5,3.3-4.2,4.6-8.1,5.9c-6.5-0.9-12.2-2.9-18.2-5.5c-7.7-3.2-15.4-6.2-23.2-8.8c-6.2-2.1-11.2-4.6-14.5-10.4
	c-2.1-6.4-3.2-10.8-0.2-17.1c4.4-5.4,9.8-9.3,15.4-13.3c0.7-0.5,1.4-1,2.1-1.5C154.8,155.6,164.3,154.8,174.8,155.2z"/>
<path class="st0" d="M201.2,364c3.3,0.7,3.3,0.7,5.9,2.9c1.6,2.9,2.6,5.5,2.9,8.7c-2.2,5.9-6.2,9.1-10.9,13
	c-0.8,0.7-1.6,1.4-2.4,2.1c-2.6,2.3-5.3,4.5-7.9,6.8c-1.8,1.6-3.7,3.1-5.5,4.7c-3.7,3.2-7.5,6.4-11.1,9.6
	c-7.5,6.4-14.9,12.9-22.4,19.3c-2.2,1.8-4.2,3.7-6.4,5.5c-0.7,0.6-1.4,1.1-2.1,1.7c-1.7,1.5-3.6,3.1-5.3,4.6c-2.3,2-4.5,3.9-6.8,6
	c-4,3.4-6.5,4.4-11.7,5.5c-3.2-0.7-3.2-0.7-5.9-2.9c-1.8-3.2-3.1-6.2-3.2-9.8c3.1-5.9,7.6-9.6,12.6-13.8c0.8-0.7,1.7-1.5,2.6-2.2
	c2.9-2.4,5.6-4.8,8.5-7.2c3.9-3.3,7.9-6.7,11.8-10.1c1-0.8,2-1.7,3-2.5c6.5-5.5,12.9-11.1,19.3-16.9c1.6-1.5,3.2-2.9,4.8-4.4
	c2.3-2.1,4.6-4,6.9-6.1c2.1-1.8,4.1-3.8,6.3-5.6c0.6-0.6,1.1-1.1,1.8-1.6C190.6,367.4,195.3,365.1,201.2,364z"/>
<path class="st0" d="M228.3,402.2c3.4,2.8,4.4,4.8,5.9,8.8c0.3,3.4-0.9,5.3-2.6,8.1c-2.1,2.2-2.1,2.2-4.5,4.2
	c-0.9,0.8-1.8,1.6-2.8,2.4c-1.5,1.3-1.5,1.3-3,2.5c-1,0.8-2,1.7-3,2.6c-2.1,1.8-4.2,3.7-6.3,5.4c-3.2,2.8-6.4,5.5-9.6,8.3
	c-2.1,1.7-4.1,3.6-6.2,5.3c-0.9,0.8-2,1.6-2.9,2.5c-5.4,4.6-9.8,7.6-16.6,9.1c-3.8-1.1-5.3-2.2-7.6-5.3c-1.3-3.4-1.4-5.4-0.7-9
	c3-3.9,6.4-7,10.2-10.2c1.1-0.9,2.3-2,3.4-3c1.3-1,2.4-2.1,3.7-3.1c1.3-1,2.5-2.1,3.7-3.2c2.4-2.1,4.8-4.1,7.3-6.3
	c2.9-2.4,5.7-4.9,8.6-7.3c0.7-0.7,1.5-1.3,2.2-2c1.3-1.1,2.6-2.3,3.9-3.4C217.3,403.9,220.3,401.9,228.3,402.2z"/>
<path class="st0" d="M99.1,189.9c4.4,1.6,5.6,3,7.8,7.1c0.7,4.6,0.1,6.3-2.1,10.3c-3.2,2.8-6.8,4.9-10.4,7.2c-1,0.7-2.1,1.3-3.1,2
	c-2.2,1.4-4.4,2.8-6.7,4.1c-3.3,2.1-6.7,4.1-10,6.3c-2.2,1.4-4.2,2.6-6.4,4c-1.5,0.9-1.5,0.9-3,2c-14.5,8.8-14.5,8.8-21.5,7.3
	c-3.3-3-5-6.4-5.4-10.9c2.1-6.7,7.5-9.3,13.1-12.7c1-0.7,2.1-1.3,3.1-2c2.2-1.4,4.2-2.8,6.4-4.1c3.2-2.1,6.5-4.1,9.8-6.2
	c2.1-1.4,4.1-2.6,6.3-4c0.9-0.6,2-1.3,2.9-1.8C85.9,194.6,92,191.2,99.1,189.9z"/>
</svg>
