<?xml version="1.0" encoding="utf-8"?>
<!-- Generator: Adobe Illustrator 24.0.1, SVG Export Plug-In . SVG Version: 6.00 Build 0)  -->
<svg version="1.1" id="Layer_1" xmlns="http://www.w3.org/2000/svg" xmlns:xlink="http://www.w3.org/1999/xlink" x="0px" y="0px"
	 viewBox="0 0 512 512" style="enable-background:new 0 0 512 512;" xml:space="preserve">
<style type="text/css">
	.st0{fill:#E1A730;}
</style>
<path class="st0" d="M54.5,53.7c2.7,2.4,5.1,4.8,7.4,7.6c2.3,1.9,3.8,2.3,6.7,3c9.2,2.5,16.4,8.4,21.3,16.5
	c4.2,8.2,5.3,15.6,5.2,24.7c0,2,0,3.9-0.1,5.9c0,1,0,2.1,0,3.1c-0.1,6.7-0.1,13.4-0.1,20.2c0,5.9,0,11.8-0.1,17.6
	c-1.4,35.1-1.4,35.1,11.9,66.6c2.2,3.1,3.6,6.5,5.2,9.9c0.4,1,0.9,1.9,1.4,2.9c0.9,2.2,0.9,2.2,0.9,4.2c0.7,0,1.4,0,2.1,0
	c16.8-0.1,33.5-0.1,50.3-0.1c8.1,0,16.2,0,24.3-0.1c7.1,0,14.1,0,21.2-0.1c3.7,0,7.5,0,11.2,0c4.2,0,8.4,0,12.5,0c1.9,0,1.9,0,3.7,0
	c7.2,0,13.8,0.2,19.6,5.1c0.4,0.6,0.9,1.2,1.4,1.8c0.5,0.6,0.9,1.2,1.4,1.7c3.9,5.8,3.9,11,3.2,17.8c-1.7,5.4-5.5,8.8-10,12
	c-3.4,1.6-6.2,2.3-10,2.3c-1,0-1.9,0-3,0c-1.6,0-1.6,0-3.2,0c-1.7,0-1.7,0-3.4,0c-3.7,0-7.4,0-11.1,0.1c-2.6,0-5.1,0-7.7,0.1
	c-6.1,0-12.1,0.1-18.2,0.1c-6.9,0-13.8,0.1-20.7,0.1c-14.2,0.1-28.4,0.2-42.7,0.3c1.8,3.7,3.5,7.3,5.3,11c0.5,1,1,2.1,1.5,3.1
	c2.7,5.7,5.4,11.3,8.2,17c0.6,1.1,1.1,2.3,1.7,3.4c1.1,2.3,2.2,4.6,3.3,6.8c0.5,1.1,1.1,2.2,1.6,3.4c0.5,1,0.9,1.9,1.4,3
	c1,2.3,1,2.3,1,4.3c0.8,0,1.6,0,2.4,0c19-0.1,38-0.1,57-0.1c9.2,0,18.4,0,27.5-0.1c8,0,16,0,24-0.1c4.2,0,8.5,0,12.7,0c4,0,8,0,12,0
	c1.5,0,2.9,0,4.4,0c13.8-0.1,23.6,1.9,34,11.4c8.8,10.1,13.5,22,12.9,35.4c-1.4,14-8.1,25.6-18.9,34.6c-7.8,5.2-16.7,6.3-25.9,6.3
	c-1.3,0-1.3,0-2.5,0c-2.7,0-5.5,0-8.2,0c-1.9,0-3.8,0-5.8,0c-4,0-8,0-12.1,0c-5.1,0-10.3,0-15.4,0c-4,0-7.9,0-11.9,0
	c-1.9,0-3.8,0-5.7,0c-2.6,0-5.3,0-7.9,0c-0.8,0-1.6,0-2.4,0c-4.8,0-8.1-0.8-12.2-3.4c-1.6-3.1-1.4-5.5-1-9c2-2.7,3.5-4.7,6.9-5.4
	c2.3-0.2,4.6-0.2,6.9-0.1c1.3,0,1.3,0,2.6,0c1.9,0,3.8,0,5.7,0c3,0,6,0,9,0c7.5,0,14.9,0,22.4,0.1c6.3,0,12.6,0.1,18.9,0
	c2.9,0,5.9,0,8.8,0.1c11.9,0.3,11.9,0.3,22.2-5c6.3-6.9,9.1-14.7,8.8-24.1c-0.9-7.5-4.5-14.7-10.3-19.6c-4.4-2.6-7.6-3.4-12.8-3.4
	c-1,0-1,0-2,0c-2.2,0-4.4,0-6.5,0c-1.6,0-3.1,0-4.7,0c-3.4,0-6.7,0-10.1,0c-5.3,0-10.7,0-16,0c-12.3,0-24.6-0.1-36.8-0.1
	c-11.3,0-22.5,0-33.8-0.1c-5.3,0-10.6,0-15.9,0c-3.3,0-6.6,0-9.9,0c-1.5,0-3.1,0-4.6,0c-2.1,0-4.2,0-6.3,0c-1.8,0-1.8,0-3.5,0
	c-3.4-0.4-5.3-1.3-8.1-3.4c-1.3-1.8-1.3-1.8-2.3-3.9c-0.4-0.8-0.8-1.6-1.2-2.4c-0.6-1.3-0.6-1.3-1.2-2.6c-0.4-0.9-0.9-1.8-1.3-2.7
	c-0.9-1.9-1.8-3.8-2.7-5.7c-1.4-3-2.8-5.9-4.3-8.9c-4-8.2-7.9-16.4-11.5-24.8c-0.7-1.6-0.7-1.6-1.5-3.3c-0.8-1.9-1.6-3.8-2.4-5.7
	c-1.1-2.4-1.9-4.1-3.6-6.1c-2.2-0.6-2.2-0.6-4.7-0.7c-0.8-0.1-1.6-0.1-2.5-0.2c-0.9,0-0.9,0-1.9-0.1c2.5,7,5,13.9,7.5,20.9
	c1.2,3.2,2.3,6.5,3.5,9.7c1.3,3.8,2.7,7.5,4,11.3c0.7,1.8,0.7,1.8,1.3,3.7c2.9,8,5.8,16,8.8,24c2,5.2,2,5.2,2,7.4c0.8,0,1.6,0,2.4,0
	c19.1-0.1,38.3-0.2,57.4-0.3c9.3,0,18.5-0.1,27.8-0.1c8.1-0.1,16.1-0.1,24.2-0.1c4.3,0,8.5,0,12.8-0.1c4,0,8-0.1,12.1,0
	c1.5,0,2.9,0,4.4,0c8-0.1,13.8,0.1,20.3,5.1c4.6,4.5,5.9,9,6.1,15.3c-0.2,6-1.8,9.5-5.8,14.1c-5,4.3-9.1,5.7-15.7,5.7
	c-0.7,0-1.4,0-2.1,0c-2.3,0-4.6,0-6.8,0c-1.6,0-3.3,0-4.9,0c-4.4,0-8.9,0-13.3,0c-3.7,0-7.4,0-11.2,0c-8.8,0-17.6,0-26.3,0
	c-9,0-18.1,0-27.1,0.1c-7.8,0-15.5,0-23.3,0c-4.6,0-9.3,0-13.9,0c-4.4,0-8.7,0-13.1,0c-1.6,0-3.2,0-4.8,0c-10,0.1-18.3-0.6-26.1-7.4
	c-8.4-8.4-11.8-21.2-15.8-32.2c-0.4-1.1-0.8-2.2-1.2-3.3c-0.4-1-0.8-2.1-1.1-3.2c-0.3-0.9-0.7-1.9-1-2.8c-0.8-3.1-1-5.6-0.7-8.8
	c2.1-2.9,2.1-2.9,5-5c3.6-0.6,3.6-0.6,7,0c3.9,3,5.3,6.6,6.8,11.1c0.2,0.7,0.5,1.4,0.8,2.1c0.8,2.2,1.6,4.4,2.3,6.6
	c1,2.9,2,5.8,3.1,8.6c0.2,0.7,0.4,1.3,0.7,2c1.8,5.1,4.3,10.6,9,13.6c3.1,1.2,5.6,1.2,8.9,1.2c0.7,0,1.3,0,2,0c2.2,0,4.4,0,6.6,0
	c1.6,0,3.2,0,4.7,0c4.3,0,8.6,0,12.8,0c4.5,0,8.9,0,13.4,0c8.5,0,16.9,0,25.4,0c9.6,0,19.3,0,28.9,0c19.8,0,39.7-0.1,59.5-0.1
	c-0.3-1.6-0.7-3.3-1-5c-0.8,0-1.6,0-2.5,0c-19.7,0-39.4-0.1-59.1-0.1c-9.5,0-19-0.1-28.6-0.1c-8.3,0-16.6,0-24.9-0.1
	c-4.4,0-8.8,0-13.2,0c-4.1,0-8.3,0-12.4,0c-1.5,0-3,0-4.6,0c-2.1,0-4.1,0-6.2,0c-1.2,0-2.3,0-3.5,0c-4-0.8-5.5-2.5-8.1-5.6
	c-1.5-3-1.5-3-2.7-6.5c-0.2-0.6-0.5-1.3-0.7-2c-0.8-2.2-1.5-4.4-2.3-6.5c-0.5-1.6-1.1-3.1-1.6-4.7c-0.9-2.6-1.8-5.1-2.7-7.7
	c-2.6-7.5-5.3-15.1-8.1-22.6c-0.9-2.4-1.7-4.8-2.6-7.2c-1.3-3.6-2.6-7.1-3.9-10.7c-1.2-3.4-2.4-6.7-3.6-10.1c-0.4-1-0.7-2-1.1-3
	c-5.3-14.8-5.3-14.8-3.5-19.5C88,261,88,261,89,260c2-0.1,4-0.1,6-0.1c1.3,0,2.6,0,4,0c1.5,0,2.9,0,4.4,0c1.5,0,3.1,0,4.6,0
	c3.3,0,6.6,0,9.9,0c5.2,0,10.5,0,15.7-0.1c14.9-0.1,29.7-0.1,44.6-0.2c8.2,0,16.4-0.1,24.6-0.1c5.2,0,10.4,0,15.6-0.1
	c3.2,0,6.5,0,9.7,0c1.5,0,3,0,4.5,0c2,0,4.1,0,6.1,0c1.1,0,2.3,0,3.5,0c3-0.1,3-0.1,5.8-2.3c-0.3-1-0.7-2-1-3
	c-21.3,0-42.6-0.1-63.9-0.1c-9.9,0-19.8,0-29.7,0c-8.6,0-17.2,0-25.9,0c-4.6,0-9.1,0-13.7,0c-4.3,0-8.6,0-12.9,0c-1.6,0-3.2,0-4.7,0
	c-2.2,0-4.3,0-6.5,0c-1.2,0-2.4,0-3.7,0c-3,0.2-4.6,0.6-7.1,2.2c-2.2,4.4-1.1,9.1,0.4,13.6c0.6,1.7,1.3,3.5,1.9,5.2
	c0.7,1.9,1.4,3.8,2.1,5.7c1.1,3,2.2,5.9,3.3,8.9c1.1,2.9,2.1,5.7,3.1,8.6c0.5,1.3,0.5,1.3,1,2.6c1.9,5.3,3.5,10.7,2.3,16.4
	c-2.1,2.7-3,3-6.4,3.9c-4.2,0.1-5.4-0.3-8.6-2.9c-1.3-2.6-2.2-4.9-3.2-7.6c-0.3-0.8-0.5-1.5-0.8-2.3c-0.9-2.4-1.7-4.9-2.5-7.3
	c-0.6-1.6-1.1-3.2-1.7-4.8c-12.2-34.6-12.2-34.6-8.1-44.9c3.5-6.9,9.2-11.6,16.4-14.4c3.5-0.9,7.1-1.1,10.7-1.4
	c1.8-0.1,1.8-0.1,3.5-0.3c0.9-0.1,1.8-0.1,2.7-0.2c-0.6-1.2-1.2-2.4-1.8-3.6C70.5,185,70.5,185,67,177.2c-2.2-4.8-4.6-9.4-7.3-14
	c-10-17.9-11.5-32.7-10.9-52.8C49,104.6,49,98.8,49,93c0-2,0.1-4,0.1-6c0.1-7.8,0.2-13.5-5.5-19.4c-5.2-3-12-2.2-17.7-1.6
	c-3.8,1.2-5.5,3.2-7.6,6.6c-1.6,4-1.9,7.6-1.9,11.8c0,0.8,0,1.7-0.1,2.5c-0.1,2.7-0.1,5.5-0.1,8.2c0,1,0,1.9,0,2.9
	c-0.1,5.1-0.1,10.1-0.1,15.2c0,4.1-0.1,8.2-0.2,12.4c-0.7,27.1,1.8,49.3,12.5,74.3c2.5,5.8,4.5,11.8,6.6,17.8
	c0.8,2.1,1.5,4.2,2.3,6.3c2.5,6.9,5,13.7,7.5,20.6c0.4,1.2,0.9,2.4,1.3,3.6c4.5,12.5,9,25,13.5,37.5c0.8,2.2,1.6,4.4,2.3,6.6
	c1.2,3.3,2.3,6.5,3.5,9.8c4,11.2,8,22.3,12,33.4c0.7,2.1,1.5,4.2,2.2,6.2c2.1,5.7,4.1,11.5,6.2,17.2c0.8,2.1,1.5,4.1,2.2,6.2
	c1.2,3.3,2.4,6.6,3.6,9.8c0.4,1,0.7,2,1.1,3c3,8.2,6.1,14.8,14.2,19c3.9,1.2,7.6,1.2,11.6,1.2c0.9,0,1.7,0,2.6,0c1.9,0,3.8,0,5.7,0
	c3,0,6,0,9,0c8.5,0.1,17,0.1,25.4,0.1c5.2,0,10.4,0,15.6,0.1c2,0,4,0,5.9,0c2.8,0,5.5,0,8.3,0c0.8,0,1.6,0,2.5,0
	c4.6,0.1,7.6,0.5,11.3,3.4c1.4,2.9,1.3,4.8,1,8c-2.2,3.3-3.2,4.7-7,6c-2.6,0.1-5.1,0.1-7.7,0.1c-0.8,0-1.5,0-2.3,0
	c-2.4,0-4.8,0-7.2,0c-1.6,0-3.2,0-4.9,0c-4,0-8,0-11.9,0c-0.1,0.6-0.3,1.2-0.4,1.8c-2.6,11.2-6.3,22-9.8,32.9
	c-0.7,2.1-1.3,4.1-2,6.2c-1.6,5-3.2,10-4.8,15.1c0.6,0,1.3,0,2,0c15.7,0.1,31.3,0.1,47,0.2c7.6,0,15.2,0.1,22.7,0.1
	c6.6,0,13.2,0.1,19.8,0.1c3.5,0,7,0,10.5,0c3.9,0,7.8,0,11.7,0.1c1.2,0,2.3,0,3.5,0c7.3,0.1,11.8,0.9,17.4,5.7
	c3.7,4.3,5.5,7.6,5.4,13.4c0,0.8,0,1.6,0,2.4c0,0.6,0,1.2,0,1.9c1,0,1.9,0,2.9,0c9.1-0.1,18.2-0.1,27.4-0.2c4.7,0,9.4,0,14.1-0.1
	c4.5,0,9.1-0.1,13.6-0.1c1.7,0,3.5,0,5.2,0c2.4,0,4.8,0,7.3,0c0.7,0,1.4,0,2.2,0c3.4,0,5.1,0.3,7.9,2.3c2.3,3.1,2.6,5.4,2.6,9.2
	c-1.6,2.7-1.6,2.7-4,5c-2.8,0.6-2.8,0.6-6.2,0.6c-1.3,0-2.5,0-3.8,0c-1.4,0-2.8,0-4.2,0c-1.5,0-3,0-4.5,0c-4.1,0-8.2,0-12.4,0
	c-4.4,0-8.9,0-13.3,0c-8.7,0-17.4,0-26.1,0c-7.1,0-14.1,0-21.2,0c-1,0-2,0-3,0c-2,0-4.1,0-6.1,0c-18.1,0-36.2,0-54.2,0
	c-17.6,0-35.1,0-52.7,0c-19.1,0-38.2,0-57.3,0c-2,0-4.1,0-6.1,0c-1,0-2,0-3,0c-7.1,0-14.1,0-21.2,0c-8.6,0-17.2,0-25.8,0
	c-4.4,0-8.8,0-13.2,0c-4,0-8,0-12.1,0c-1.5,0-2.9,0-4.4,0c-2,0-4,0-5.9,0c-1.1,0-2.2,0-3.3,0c-3.5-0.6-4.7-1.8-6.8-4.5
	c-0.6-2-0.6-2-0.6-4c0-0.7,0-1.3-0.1-2c1-3.3,2.7-4.2,5.6-6c3.2-0.6,6.5-0.6,9.7-0.5c1,0,2,0,3,0c3.2,0,6.4,0,9.7,0
	c2.2,0,4.5,0,6.7-0.1c5.9,0,11.8-0.1,17.6-0.1c6,0,12-0.1,18-0.1c11.8-0.1,23.5-0.1,35.3-0.2c-0.3-1.1-0.6-2.2-1-3.3
	c-2.3-8.3-0.5-14.7,2.1-22.7c0.5-1.6,0.5-1.6,1-3.2c1-3.3,2.1-6.6,3.1-9.9c0.7-2.2,1.4-4.4,2-6.6c3.5-11.2,7-22.3,10.8-33.3
	c-1.1,0-1.1,0-2.2,0.1c-12.5,0.3-23.6-2-33-10.6c-7.2-7.8-10.7-18.3-14.1-28.2c-0.6-1.6-0.6-1.6-1.2-3.3c-0.8-2.3-1.7-4.7-2.5-7.1
	c-1.3-3.7-2.6-7.5-4-11.2c-0.5-1.3-0.9-2.6-1.4-3.8c-0.2-0.6-0.4-1.3-0.7-1.9c-0.7-1.9-1.4-3.9-2-5.8c-4-11.4-8.2-22.9-12.3-34.3
	c-1.4-3.8-2.8-7.6-4.2-11.5c-0.4-1-0.7-1.9-1.1-2.9c-4.8-13.2-9.6-26.5-14.3-39.7c-0.2-0.6-0.5-1.3-0.7-1.9
	c-3.5-9.6-6.9-19.2-10.4-28.7c-0.2-0.6-0.5-1.3-0.7-1.9c-2.8-7.8-5.6-15.6-8.4-23.4c-0.8-2.2-1.6-4.4-2.4-6.6c-1.1-3-2.2-6-3.2-9
	c-0.3-0.9-0.6-1.8-1-2.7c-0.3-0.8-0.6-1.6-0.9-2.4c-0.3-0.7-0.5-1.4-0.8-2.1c-1.1-3.1-1.8-5.6-1.8-8.9c0-0.8,0-1.7,0-2.5
	c0-1.4,0-1.4,0-2.8c0-1,0-1.9,0-2.9c0-3.2,0-6.4,0-9.5c0-1.1,0-2.2,0-3.3c0-5.8,0-11.5,0-17.3c0-5.9,0-11.9-0.1-17.8
	c0-4.6,0-9.2,0-13.7c0-2.2,0-4.4,0-6.6c0-3.1,0-6.1,0-9.2c0-0.9,0-1.8,0-2.7c0.1-9.2,3.1-17.1,9.4-23.8
	C21.1,45.4,41.3,44.7,54.5,53.7z M66,82c-0.3,7.3-0.5,14.5-0.6,21.8c-0.1,2.5-0.1,4.9-0.2,7.4C64.5,129.8,67.4,143,77,159
	c0.3,0,0.7,0,1,0c0.1-8.2,0.2-16.4,0.2-24.6c0-3.8,0-7.6,0.1-11.4c0-3.7,0.1-7.4,0.1-11c0-1.4,0-2.8,0-4.2
	c0.2-12.2,0.2-12.2-5.9-22.3C69.6,82.8,69.6,82.8,66,82z M140,416c-2.6,8.4-5.2,16.7-7.8,25.1c-1.2,3.9-2.4,7.8-3.6,11.7
	c-1.2,3.8-2.3,7.5-3.5,11.3c-0.4,1.4-0.9,2.9-1.3,4.3c-0.6,2-1.3,4-1.9,6c-0.5,1.7-0.5,1.7-1.1,3.5c-1.1,4.8-1.4,7.9,0.9,12.4
	c3.2,3.8,6.3,5.6,11.3,6.2c1,0,2.1,0,3.1,0c1.2,0,2.4,0,3.6,0c1.9,0,1.9,0,3.9,0c1.4,0,2.8,0,4.1,0c3.7,0,7.5,0,11.2,0
	c3.9,0,7.8,0,11.7,0c7.4,0,14.8,0,22.2-0.1c8.4,0,16.8-0.1,25.3-0.1c17.3,0,34.6-0.1,52-0.2c1-2,1-2,2-4c-1.8-2.2-2.6-2.9-5.5-3.4
	c-1,0-2,0-3,0c-1.2,0-2.3,0-3.5,0c-1.3,0-2.5,0-3.8,0c-1.3,0-2.7,0-4,0c-2.9,0-5.8,0-8.7,0c-4.6,0-9.2,0-13.7,0
	c-9.7,0-19.4-0.1-29.2-0.1c-10.5,0-21,0-31.5-0.1c-4.6,0-9.1,0-13.7,0c-2.8,0-5.7,0-8.5,0c-1.9,0-3.9,0-5.8,0c-1.2,0-2.3,0-3.5,0
	c-1,0-2,0-3,0c-2.5-0.4-2.5-0.4-4.3-1.7c-2.1-3-1.7-6.2-1.2-9.7c1.1-4.4,2.5-8.8,3.9-13.1c0.6-1.9,1.2-3.8,1.8-5.7
	c0.9-2.6,1.7-5.3,2.6-7.9c1.5-4.6,3-9.3,4.5-13.9c0.8-2.5,1.6-4.9,2.4-7.4c0.4-1.1,0.7-2.2,1.1-3.4c0.3-1,0.6-2,1-3
	c0.9-2.8,0.9-2.8,0.7-6.6C144.7,416,142.4,416,140,416z"/>
<path class="st0" d="M383,28.7c0.9,0,1.8,0,2.8,0c1.9,0,3.9,0,5.8,0c2.9,0,5.8,0,8.8-0.1c14.4-0.1,28,1.2,40.9,8.2
	c0.7,0.3,1.3,0.7,2,1c5.8,3.1,10.8,6.8,15.6,11.2c0.7,0.6,1.4,1.2,2.1,1.8c14.5,13.4,23.1,33.7,24,53.2c0,2.1,0.1,4.2,0.1,6.3
	c0,0.8,0,1.6,0,2.4c0,2.6,0,5.1,0,7.7c0,1.3,0,1.3,0,2.7c0,4.7,0,9.4,0,14.1c0,4.8,0,9.6,0.1,14.4c0,3.7,0,7.5,0,11.2
	c0,1.8,0,3.5,0,5.3c0.2,24.1-4.2,47-21.4,65.3c-3,2.5-5.1,2.9-9,2.7c-2.9-1.3-4.5-2.1-6-5c-0.4-4.1-0.4-6.3,1.8-9.9
	c0.8-0.9,1.6-1.8,2.4-2.8c12.2-15.1,14.3-30.5,14.9-49.3c-2,0-4,0-6,0c0,0.5,0,1.1,0.1,1.7c0.4,19.4-4.5,35.2-17.8,49.5
	c-13.2,12.5-29.1,15.5-46.5,15.3c-2.4,0-4.8,0-7.3,0c-18.3,0-33.6-4.4-46.8-17.5c-8.3-9-14.9-21.2-14.8-33.7c0-0.9,0-1.8,0-2.7
	c0-0.9,0-1.8,0-2.8c0-0.9,0-1.9,0-2.8c0-2.3,0-4.6,0-6.9c-2.3,0-4.6,0-7,0c0.6,20.9,3.8,39,19.2,54.4c14.6,13.6,31.8,18.2,51.5,18.1
	c2.2,0,4.3,0,6.5,0.1c10.9,0.1,21.4-1.4,31.6-5.6c3.4-1.3,5.8-0.7,9.3,0.1c2.9,1.7,3,3.1,3.9,6.4c0.1,3.6,0.1,3.6-1.6,6.2
	c-2.7,2.8-4.9,3.8-8.5,5.1c-1.1,0.4-2.1,0.8-3.2,1.2c-7.9,2.4-15.5,3.4-23.7,3.4c-0.9,0-1.8,0-2.8,0c-1.9,0-3.9,0-5.8,0
	c-2.9,0-5.8,0-8.8,0.1c-14.4,0.1-28-1.2-40.9-8.2c-0.7-0.3-1.3-0.7-2-1c-5.8-3.1-10.8-6.8-15.6-11.2c-1-0.9-1-0.9-2.1-1.8
	c-14.8-13.6-23.1-34.4-24-54.3c0-2.1-0.1-4.1,0-6.2c0-0.8,0-1.5,0-2.3c0-2.5,0-5,0-7.6c0-1.8,0-3.5,0-5.3c0-3.7,0-7.4,0-11.1
	c0-4.7,0-9.4,0-14.1c0-3.7,0-7.3,0-11c0-1.7,0-3.5,0-5.2C304.7,94.4,309.3,73,326,54c0.6-0.7,1.2-1.4,1.8-2.1
	C341.8,36.7,362.6,28.7,383,28.7z M335.1,69.1C315.9,93,322,123.5,322,153c48.2,0,96.4,0,146,0c3.1-49.7,3.1-49.7-18.2-89.4
	c-15-14.2-32.3-19.4-52.6-19.1c-2.1,0-4.3,0-6.4,0C368.3,44.4,350.2,52.4,335.1,69.1z M345,169c0,16.2,0.9,26.8,12.1,38.1
	c11.3,10.6,22.7,12.2,37.8,12.2c1.1,0,2.2,0,3.3,0c13.7,0,25.4-3.1,35.6-12.5c10.7-11.2,11.2-22.5,11.2-37.8
	C412,169,379,169,345,169z"/>
<path class="st0" d="M381.4-0.3c1.1,0,2.1,0,3.2,0c2.2,0,4.4,0,6.6,0c3.3,0,6.7,0,10-0.1C431.5-0.6,457.6,8.3,480,29
	c0.7,0.6,1.3,1.2,2,1.8c16.8,15.5,28.5,41.2,30.2,63.8c0.1,2.6,0.1,5.2,0.1,7.8c0,1,0,2,0,3c0,3.2,0,6.4,0,9.6c0,2.3,0,4.5,0,6.8
	c0,4.7,0,9.4,0,14.1c0,6,0,12,0.1,18c0,4.6,0,9.3,0,13.9c0,2.2,0,4.4,0,6.6c0.2,31.2-8.3,57.4-29.5,80.6c-0.6,0.7-1.2,1.3-1.8,2
	c-15.5,16.7-40.9,29-63.7,30.1c-2.9,0.1-5.7,0.1-8.6,0.1c-1.1,0-2.1,0-3.2,0c-2.2,0-4.5,0-6.7,0c-2.3,0-4.5,0-6.8,0.1
	c-31.9,0.4-58.6-7.7-82.3-29.4c-0.7-0.6-1.4-1.2-2.1-1.9c-18.5-17.5-29.6-44.2-30.4-69.4c-0.1-5.1-0.1-10.2-0.1-15.4
	c0-2.2,0-4.5,0-6.7c0-4.7,0-9.3,0-14c0-5.9,0-11.9,0-17.8c0-4.6,0-9.2,0-13.9c0-2.2,0-4.4,0-6.6c-0.1-32.1,9.4-59.5,31.8-83.1
	C328.6,10.8,354.7-0.3,381.4-0.3z M324,39c-0.8,0.7-1.5,1.4-2.3,2.1C305.9,56,295,78.1,293.9,100c0,2.3-0.1,4.6-0.1,6.9
	c0,0.9,0,1.7,0,2.6c0,2.8,0,5.7,0,8.5c0,1,0,2,0,3c0,5.2,0,10.4,0,15.5c0,5.3,0,10.6-0.1,15.9c0,4.1,0,8.2,0,12.4c0,2,0,3.9,0,5.9
	c-0.2,27,5.8,50.7,24.3,71.3c0.7,0.8,1.4,1.6,2.1,2.4c14.1,15.1,36.4,25.7,57,26.7c2.3,0.1,4.6,0.1,6.8,0.1c1.3,0,1.3,0,2.6,0
	c1.8,0,3.6,0,5.3,0c2.7,0,5.3,0,8,0.1c25.9,0.2,48.9-7,67.9-25c1.1-1.1,1.1-1.1,2.3-2.3c1.1-1.1,1.1-1.1,2.3-2.3
	c19.5-20.4,24-45.4,24-72.6c0-2,0-4.1,0-6.1c0-4.2,0-8.5,0-12.7c0-5.4,0-10.8,0-16.2c0-4.2,0-8.4,0-12.6c0-2,0-4,0-6
	c0.1-27.1-6-51.1-25.1-71.2c-1.1-1.1-1.1-1.1-2.3-2.3c-1.1-1.1-1.1-1.1-2.3-2.3c-19-18.2-43.4-24.3-69.1-24.1c-2.6,0-5.2,0-7.8,0
	C365.3,15.6,342.6,22.4,324,39z"/>
<path class="st0" d="M401.2,495.4c1.1,0,2.3,0,3.4,0c3.7,0,7.5,0,11.2,0c2.6,0,5.2,0,7.8,0c5.5,0,10.9,0,16.4,0c6.3,0,12.6,0,18.9,0
	c6.1,0,12.1,0,18.2,0c2.6,0,5.2,0,7.7,0c3.6,0,7.2,0,10.8,0c1.1,0,2.1,0,3.2,0c4.8,0.1,7.2,0.1,11.2,3c2.4,3.5,2.5,5.5,1.8,9.7
	c-2,2.5-3.2,3.8-6.3,4.5c-1.3,0-1.3,0-2.6,0c-1,0-2,0-3,0c-1.1,0-2.2,0-3.3,0c-1.7,0-1.7,0-3.5,0c-3.8,0-7.6,0-11.5,0
	c-2.7,0-5.3,0-8,0c-5.6,0-11.1,0-16.7,0c-6.4,0-12.9,0-19.3,0c-5.5,0-11,0-16.6,0c-3.3,0-6.6,0-9.9,0c-3.7,0-7.3,0-11,0
	c-1.6,0-1.6,0-3.3,0c-1.5,0-1.5,0-3,0c-0.9,0-1.7,0-2.6,0c-3.2-0.7-4.4-2-6.3-4.5c-0.7-4.2-0.6-6.2,1.8-9.7
	C391.5,494.9,395.6,495.3,401.2,495.4z"/>
<path class="st0" d="M394.8,128.8c1.6,0,1.6,0,3.3-0.1c1.1,0,2.1,0,3.2,0c1,0,1.9,0,2.9,0c3.2,0.4,5.1,1.4,7.7,3.4
	c1.4,2.8,1.2,4.9,1,8c-0.9,2.6-1.4,3.7-3.8,5.1c-4.3,1.8-9.1,1.2-13.7,1.2c-1.6,0-1.6,0-3.1,0c-9.6,0-9.6,0-13.4-3.4
	c-2-3-2-3-1.8-6.5c0.8-3.4,1.1-4.5,3.8-6.5C385.1,128,390.3,128.8,394.8,128.8z"/>
</svg>
