<?xml version="1.0" encoding="utf-8"?>
<!-- Generator: Adobe Illustrator 24.0.1, SVG Export Plug-In . SVG Version: 6.00 Build 0)  -->
<svg version="1.1" id="Layer_1" xmlns="http://www.w3.org/2000/svg" xmlns:xlink="http://www.w3.org/1999/xlink" x="0px" y="0px"
	 viewBox="0 0 512 512" style="enable-background:new 0 0 512 512;" xml:space="preserve">
<style type="text/css">
	.st0{fill:#E1A730;}
</style>
<path class="st0" d="M216.1-0.2c0.9,0,1.9,0,2.9,0c3.1,0,6.3,0,9.4,0c1.6,0,1.6,0,3.2,0c5.7,0,11.3,0,17,0c5.9,0,11.7,0,17.6-0.1
	c4.5,0,9,0,13.5,0c2.2,0,4.3,0,6.5,0c3,0,6.1,0,9.1,0c0.9,0,1.8,0,2.7,0c5.5,0,8.6,0.9,12.9,4.5c3.1,3.2,3.8,6.4,4.8,10.6
	c0.2,1,0.2,1,0.4,1.9c0.5,2,0.9,4.1,1.4,6.1c0.3,1.4,0.6,2.7,0.9,4.1c0.6,2.6,1.2,5.2,1.7,7.8c0.5,2.1,0.9,4.2,1.4,6.3
	c0.8,3.5,1.3,6.5,1.3,10.2c0.5,0.1,1.1,0.3,1.6,0.4c6.5,1.8,12.5,4.3,18.7,7.2c0.7,0.3,1.3,0.6,2,0.9c0.6,0.3,1.2,0.5,1.7,0.8
	c3.9,1.4,6.7,2.3,10.6,0.6c0.9-0.6,1.7-1.2,2.6-1.8c1-0.6,1.9-1.3,2.9-2c1-0.7,2-1.4,3-2.1c2.1-1.4,4.1-2.8,6.2-4.2c1-0.7,2-1.3,3-2
	c15.1-10.2,15.1-10.2,22.7-9.8c6,2.2,10.3,5.7,14.7,10.2c0.6,0.6,1.2,1.2,1.9,1.8c2,2,4,4,6.1,6c1.4,1.4,2.8,2.8,4.2,4.2
	c3,2.9,5.9,5.9,8.9,8.9c3.8,3.8,7.6,7.5,11.4,11.3c2.9,2.9,5.8,5.8,8.8,8.7c1.4,1.4,2.8,2.8,4.2,4.2c2,1.9,3.9,3.9,5.8,5.8
	c0.6,0.6,1.2,1.1,1.7,1.7c4,4.1,6.3,8.4,7.3,14.1c-0.4,6.3-3.7,11.3-7,16.6c-0.7,1.2-0.7,1.2-1.5,2.3c-2.4,3.9-4.9,7.7-7.5,11.4
	c-0.5,0.7-0.9,1.3-1.4,2c-0.9,1.3-1.8,2.5-2.7,3.7c-1.9,2.7-2.9,4.5-2.9,7.9c1.2,3.7,2.7,7.3,4.4,10.8c2.7,6,5,11.9,6.6,18.2
	c1.2,0.1,2.3,0.3,3.5,0.4c6.2,0.8,12.3,2.2,18.4,3.5c2.2,0.5,4.4,0.9,6.5,1.4c1.4,0.3,2.8,0.6,4.2,0.9c1.9,0.4,1.9,0.4,3.8,0.8
	c6.1,1.7,9.9,3.7,13.5,9c1.7,3.4,1.2,7.4,1.2,11.1c0,1.4,0,1.4,0,2.9c0,3.1,0,6.3,0,9.4c0,1.1,0,2.1,0,3.2c0,5.7,0,11.3,0,17
	c0,5.9,0,11.7,0.1,17.6c0,4.5,0,9,0,13.5c0,2.2,0,4.3,0,6.5c0,3,0,6.1,0,9.1c0,0.9,0,1.8,0,2.7c0,5.5-0.8,8.6-4.5,12.9
	c-8.5,6.3-22,7.5-32.2,9.8c-1,0.2-2,0.4-3,0.7c-0.9,0.2-1.9,0.4-2.9,0.6c-1.3,0.3-1.3,0.3-2.6,0.6C465,323,465,323,461,323
	c-0.1,0.5-0.3,1.1-0.4,1.6c-1.8,6.5-4.3,12.5-7.2,18.7c-0.3,0.7-0.6,1.3-0.9,2c-0.4,0.9-0.4,0.9-0.8,1.7c-1.4,3.9-2.3,6.7-0.6,10.6
	c0.9,1.3,0.9,1.3,1.8,2.6c0.6,1,1.3,1.9,2,2.9c0.7,1,1.4,2,2.1,3c1.4,2.1,2.8,4.1,4.2,6.2c1,1.5,1,1.5,2,3
	c10.2,15.1,10.2,15.1,9.8,22.7c-2.2,6-5.7,10.3-10.2,14.7c-0.6,0.6-1.2,1.2-1.8,1.9c-2,2-4,4-6,6.1c-1.4,1.4-2.8,2.8-4.2,4.2
	c-2.9,3-5.9,5.9-8.9,8.9c-3.8,3.8-7.5,7.6-11.3,11.4c-2.9,2.9-5.8,5.8-8.7,8.8c-1.4,1.4-2.8,2.8-4.2,4.2c-1.9,2-3.9,3.9-5.8,5.8
	c-0.6,0.6-1.1,1.2-1.7,1.7c-4.1,4-8.4,6.3-14.1,7.3c-6.3-0.4-11.3-3.7-16.6-7c-0.8-0.5-1.6-1-2.3-1.5c-3.9-2.4-7.7-4.9-11.4-7.5
	c-0.7-0.5-1.3-0.9-2-1.4c-1.3-0.9-2.5-1.8-3.7-2.7c-2.7-1.9-4.5-2.9-7.9-2.9c-3.7,1.2-7.3,2.7-10.8,4.4c-6,2.7-11.9,5-18.2,6.6
	c-0.1,1.2-0.3,2.3-0.4,3.5c-0.8,6.2-2.2,12.3-3.5,18.4c-0.5,2.2-0.9,4.4-1.4,6.5c-0.3,1.4-0.6,2.8-0.9,4.2c-0.4,1.9-0.4,1.9-0.8,3.8
	c-1.7,6.1-3.7,9.9-9,13.5c-3.4,1.7-7.4,1.2-11.1,1.2c-0.9,0-1.9,0-2.9,0c-3.1,0-6.3,0-9.4,0c-1.6,0-1.6,0-3.2,0c-5.7,0-11.3,0-17,0
	c-5.9,0-11.7,0-17.6,0.1c-4.5,0-9,0-13.5,0c-2.2,0-4.3,0-6.5,0c-3,0-6.1,0-9.1,0c-0.9,0-1.8,0-2.7,0c-5.5,0-8.6-0.9-12.9-4.5
	c-3.1-3.2-3.8-6.4-4.8-10.6c-0.2-1-0.2-1-0.4-1.9c-0.5-2-0.9-4.1-1.4-6.1c-0.3-1.4-0.6-2.7-0.9-4.1c-0.6-2.6-1.2-5.2-1.7-7.8
	c-0.5-2.1-0.9-4.2-1.4-6.3c-0.8-3.5-1.3-6.5-1.3-10.2c-0.5-0.1-1.1-0.3-1.6-0.4c-6.5-1.8-12.5-4.3-18.7-7.2c-0.7-0.3-1.3-0.6-2-0.9
	c-0.6-0.3-1.2-0.5-1.7-0.8c-3.9-1.4-6.7-2.3-10.6-0.6c-1.3,0.9-1.3,0.9-2.6,1.8c-1,0.6-1.9,1.3-2.9,2c-1,0.7-2,1.4-3,2.1
	c-2.1,1.4-4.1,2.8-6.2,4.2c-1,0.7-2,1.3-3,2c-15.1,10.2-15.1,10.2-22.7,9.8c-6-2.2-10.3-5.7-14.7-10.2c-0.6-0.6-1.2-1.2-1.9-1.8
	c-2-2-4-4-6.1-6c-1.4-1.4-2.8-2.8-4.2-4.2c-3-2.9-5.9-5.9-8.9-8.9c-3.8-3.8-7.6-7.5-11.4-11.3c-2.9-2.9-5.8-5.8-8.8-8.7
	c-1.4-1.4-2.8-2.8-4.2-4.2c-2-1.9-3.9-3.9-5.8-5.8c-0.6-0.6-1.2-1.1-1.7-1.7c-4-4.1-6.3-8.4-7.3-14.1c0.4-6.3,3.7-11.3,7-16.6
	c0.5-0.8,1-1.6,1.5-2.3c2.4-3.9,4.9-7.7,7.5-11.4c0.5-0.7,0.9-1.3,1.4-2c0.9-1.3,1.8-2.5,2.7-3.7c1.9-2.7,2.9-4.5,2.9-7.9
	c-1.2-3.7-2.7-7.3-4.4-10.8c-2.7-6-5-11.9-6.6-18.2c-1.2-0.1-2.3-0.3-3.5-0.4c-6.2-0.8-12.3-2.2-18.4-3.5c-2.2-0.5-4.4-0.9-6.5-1.4
	c-1.4-0.3-2.8-0.6-4.2-0.9c-1.9-0.4-1.9-0.4-3.8-0.8c-6.1-1.7-9.9-3.7-13.5-9c-1.7-3.4-1.2-7.4-1.2-11.1c0-0.9,0-1.9,0-2.9
	c0-3.1,0-6.3,0-9.4c0-1.1,0-2.1,0-3.2c0-5.7,0-11.3,0-17c0-5.9,0-11.7-0.1-17.6c0-4.5,0-9,0-13.5c0-2.2,0-4.3,0-6.5c0-3,0-6.1,0-9.1
	c0-0.9,0-1.8,0-2.7c0-5.5,0.8-8.6,4.5-12.9c8.5-6.3,22-7.5,32.2-9.8c1-0.2,2-0.4,3-0.7c0.9-0.2,1.9-0.4,2.9-0.6
	c0.8-0.2,1.7-0.4,2.6-0.6C47,189,47,189,51,189c0.1-0.5,0.3-1.1,0.4-1.6c1.8-6.5,4.3-12.5,7.2-18.7c0.3-0.7,0.6-1.3,0.9-2
	c0.3-0.6,0.5-1.2,0.8-1.7c1.4-3.9,2.3-6.7,0.6-10.6c-0.6-0.9-1.2-1.7-1.8-2.6c-0.6-1-1.3-1.9-2-2.9c-0.7-1-1.4-2-2.1-3
	c-1.4-2.1-2.8-4.1-4.2-6.2c-0.7-1-1.3-2-2-3C38.6,121.6,38.6,121.6,39,114c2.2-6,5.7-10.3,10.2-14.7c0.6-0.6,1.2-1.2,1.8-1.9
	c2-2,4-4,6-6.1c1.4-1.4,2.8-2.8,4.2-4.2c2.9-3,5.9-5.9,8.9-8.9c3.8-3.8,7.5-7.6,11.3-11.4c2.9-2.9,5.8-5.8,8.7-8.8
	c1.4-1.4,2.8-2.8,4.2-4.2c1.9-2,3.9-3.9,5.8-5.8c0.6-0.6,1.1-1.2,1.7-1.7c4.1-4,8.4-6.3,14.1-7.3c6.3,0.4,11.3,3.7,16.6,7
	c0.8,0.5,1.6,1,2.3,1.5c3.9,2.4,7.7,4.9,11.4,7.5c0.7,0.5,1.3,0.9,2,1.4c1.3,0.9,2.5,1.8,3.7,2.7c2.7,1.9,4.5,2.9,7.9,2.9
	c3.7-1.2,7.3-2.7,10.8-4.4c6-2.7,11.9-5,18.2-6.6c0.2-1.7,0.2-1.7,0.4-3.5c0.8-6.2,2.2-12.3,3.5-18.4c0.5-2.2,0.9-4.4,1.4-6.5
	c0.3-1.4,0.6-2.8,0.9-4.2c0.4-1.9,0.4-1.9,0.8-3.8c1.7-6.1,3.7-9.9,9-13.5C208.4-0.7,212.4-0.2,216.1-0.2z M225,31
	c-2.5,11.6-2.5,11.6-5,23.2c-0.3,1.5-0.6,2.9-1,4.4c-0.2,1.1-0.2,1.1-0.5,2.3c-1,4.5-2.4,8.1-4.6,12.2c0,0.7,0,1.3,0,2
	c-3.4,1.4-6.8,2.6-10.3,3.8c-11.5,4-22.6,8.2-33.3,14c-6,3.2-11,5.1-17.8,3.1c-5.4-2-10-5.1-14.8-8.3c-2.5-1.7-5-3.4-7.6-5
	c-1.6-1-3.1-2.1-4.6-3.2c-1-0.7-1-0.7-2.1-1.4c-0.6-0.4-1.2-0.9-1.8-1.3c-1.8-0.9-1.8-0.9-3.6,0c-2.5,1.5-4.2,3.1-6.3,5.2
	c-0.8,0.8-1.6,1.6-2.4,2.4c-1.3,1.3-1.3,1.3-2.6,2.6c-0.9,0.9-1.8,1.8-2.7,2.7c-2.3,2.3-4.7,4.7-7,7.1c-2.4,2.4-4.8,4.8-7.2,7.2
	c-4.7,4.7-9.4,9.4-14,14.1c1.2,3,2.4,5.8,4.1,8.5c0.4,0.6,0.8,1.3,1.2,1.9c0.4,0.7,0.9,1.3,1.3,2c0.4,0.7,0.9,1.4,1.3,2.1
	c2.1,3.4,4.3,6.7,6.4,10.1c0.7,1.1,1.4,2.2,2.2,3.4c0.6,1,1.3,2,1.9,3c2.5,5,3,9,1.4,14.3c-1.9,5-4.2,9.7-6.6,14.5
	c-4.3,8.8-7.8,17.7-10.9,27.1c-0.2,0.7-0.5,1.4-0.7,2.2c-0.5,1.6-1,3.2-1.5,4.9c-1.6,2.9-3.1,3-6.1,4.1c-2.2,0.6-4.5,1.1-6.7,1.7
	c-0.6,0.1-1.3,0.3-1.9,0.4c-2,0.5-4.1,0.9-6.1,1.4c-1.3,0.3-2.7,0.6-4,0.9c-6.7,1.6-13.5,3.1-20.2,4.6c0,20.5,0,40.9,0,62
	c11.6,2.5,11.6,2.5,23.2,5c1.5,0.3,2.9,0.6,4.4,1c1.1,0.2,1.1,0.2,2.3,0.5c4.5,1,8.1,2.4,12.2,4.6c0.7,0,1.3,0,2,0
	c1.4,3.4,2.6,6.8,3.8,10.3c4,11.5,8.2,22.6,14,33.3c3.2,6,5.1,11,3.1,17.8c-2,5.4-5.1,10-8.3,14.8c-1.7,2.5-3.4,5-5,7.6
	c-1,1.6-2.1,3.1-3.2,4.6c-0.5,0.7-1,1.4-1.4,2.1c-0.4,0.6-0.9,1.2-1.3,1.8c-0.9,1.8-0.9,1.8,0,3.6c1.5,2.5,3.1,4.2,5.2,6.3
	c0.8,0.8,1.6,1.6,2.4,2.4c0.9,0.9,1.7,1.7,2.6,2.6c0.9,0.9,1.8,1.8,2.7,2.7c2.3,2.3,4.7,4.7,7.1,7c2.4,2.4,4.8,4.8,7.2,7.2
	c4.7,4.7,9.4,9.4,14.1,14c3-1.2,5.8-2.4,8.5-4.1c0.6-0.4,1.3-0.8,1.9-1.2c1-0.6,1-0.6,2-1.3c0.7-0.4,1.4-0.9,2.1-1.3
	c3.4-2.1,6.7-4.3,10.1-6.4c1.1-0.7,2.2-1.4,3.4-2.2c1-0.6,2-1.3,3-1.9c5-2.5,9-3,14.3-1.4c5,1.9,9.7,4.2,14.5,6.6
	c8.8,4.3,17.7,7.8,27.1,10.9c0.7,0.2,1.4,0.5,2.2,0.7c1.6,0.5,3.2,1,4.9,1.5c2.9,1.6,3,3.1,4.1,6.1c0.6,2.2,1.1,4.5,1.7,6.7
	c0.1,0.6,0.3,1.3,0.4,1.9c0.5,2,0.9,4.1,1.4,6.1c0.3,1.3,0.6,2.7,0.9,4c1.6,6.7,3.1,13.5,4.6,20.2c20.5,0,40.9,0,62,0
	c2.5-11.6,2.5-11.6,5-23.2c0.3-1.5,0.6-2.9,1-4.4c0.2-1.1,0.2-1.1,0.5-2.3c1-4.5,2.4-8.1,4.6-12.2c0-0.7,0-1.3,0-2
	c3.4-1.4,6.8-2.6,10.3-3.8c11.5-4,22.6-8.2,33.3-14c6-3.2,11-5.1,17.8-3.1c5.4,2,10,5.1,14.8,8.3c2.5,1.7,5,3.4,7.6,5
	c1.6,1,3.1,2.1,4.6,3.2c0.7,0.5,1.4,1,2.1,1.4c0.6,0.4,1.2,0.9,1.8,1.3c1.8,0.9,1.8,0.9,3.6,0c2.5-1.5,4.2-3.1,6.3-5.2
	c0.8-0.8,1.6-1.6,2.4-2.4c0.9-0.9,1.7-1.7,2.6-2.6c0.9-0.9,1.8-1.8,2.7-2.7c2.3-2.3,4.7-4.7,7-7.1c2.4-2.4,4.8-4.8,7.2-7.2
	c4.7-4.7,9.4-9.4,14-14.1c-1.2-3-2.4-5.8-4.1-8.5c-0.4-0.6-0.8-1.3-1.2-1.9c-0.4-0.7-0.9-1.3-1.3-2c-0.4-0.7-0.9-1.4-1.3-2.1
	c-2.1-3.4-4.3-6.7-6.4-10.1c-0.7-1.1-1.4-2.2-2.2-3.4c-0.6-1-1.3-2-1.9-3c-2.5-5-3-9-1.4-14.3c1.9-5,4.2-9.7,6.6-14.5
	c4.3-8.8,7.8-17.7,10.9-27.1c0.2-0.7,0.5-1.4,0.7-2.2c0.5-1.6,1-3.2,1.5-4.9c1.6-2.9,3.1-3,6.1-4.1c2.2-0.6,4.5-1.1,6.7-1.7
	c0.6-0.1,1.3-0.3,1.9-0.4c2-0.5,4.1-0.9,6.1-1.4c1.3-0.3,2.7-0.6,4-0.9c6.7-1.6,13.5-3.1,20.2-4.6c0-20.5,0-40.9,0-62
	c-11.6-2.5-11.6-2.5-23.2-5c-1.5-0.3-2.9-0.6-4.4-1c-1.1-0.2-1.1-0.2-2.3-0.5c-4.5-1-8.1-2.4-12.2-4.6c-0.7,0-1.3,0-2,0
	c-1.4-3.4-2.6-6.8-3.8-10.3c-4-11.5-8.2-22.6-14-33.3c-3.2-6-5.1-11-3.1-17.8c2-5.4,5.1-10,8.3-14.8c1.7-2.5,3.4-5,5-7.6
	c1-1.6,2.1-3.1,3.2-4.6c0.7-1,0.7-1,1.4-2.1c0.6-0.9,0.6-0.9,1.3-1.8c0.9-1.8,0.9-1.8,0-3.6c-1.5-2.5-3.1-4.2-5.2-6.3
	c-1.2-1.2-1.2-1.2-2.4-2.4c-0.9-0.9-1.7-1.7-2.6-2.6c-0.9-0.9-1.8-1.8-2.7-2.7c-2.3-2.3-4.7-4.7-7.1-7c-2.4-2.4-4.8-4.8-7.2-7.2
	c-4.7-4.7-9.4-9.4-14.1-14c-3,1.2-5.8,2.4-8.5,4.1c-1,0.6-1,0.6-1.9,1.2c-0.7,0.4-1.3,0.9-2,1.3c-0.7,0.4-1.4,0.9-2.1,1.3
	c-3.4,2.1-6.7,4.3-10.1,6.4c-1.1,0.7-2.2,1.4-3.4,2.2c-1,0.6-2,1.3-3,1.9c-5,2.5-9,3-14.3,1.4c-5-1.9-9.7-4.2-14.5-6.6
	c-8.8-4.3-17.7-7.8-27.1-10.9c-0.7-0.2-1.4-0.5-2.2-0.7c-1.6-0.5-3.2-1-4.9-1.5c-2.8-1.5-3-3.1-4.1-6.1c-0.5-1.8-1-3.6-1.4-5.5
	c-0.4-1.6-0.4-1.6-0.8-3.2c-0.3-1.1-0.5-2.2-0.8-3.3c-0.4-1.6-0.4-1.6-0.8-3.2c-1.9-7.9-3.6-15.9-5.3-23.9C266.5,31,246.1,31,225,31
	z"/>
<path class="st0" d="M339.5,165.4c22.9,21,38,51.4,39.5,82.6c1.2,35.3-9.9,67-33.8,93.1c-21.9,23.3-52.9,36.9-84.8,38
	c-34.7,0.7-65.9-11.7-91.2-35.5c-22.8-22.2-35.7-53.5-36.4-85.2c-0.4-34.8,13-66,37.2-90.9C216.1,121.5,291.9,122.7,339.5,165.4z
	 M191,192c-0.8,0.7-1.5,1.5-2.3,2.3C177.8,205.6,171.4,219,167,234c-0.3,0.9-0.5,1.8-0.8,2.7c-5.1,22.1-0.3,46.2,10.7,65.6
	c4.4,6.8,9.4,12.9,15.1,18.6c0.7,0.8,1.5,1.5,2.3,2.3c11.4,10.9,24.7,17.3,39.7,21.7c0.9,0.3,1.8,0.5,2.7,0.8
	c22.1,5.1,46.2,0.3,65.6-10.7c6.8-4.4,12.9-9.4,18.6-15.1c0.8-0.7,1.5-1.5,2.3-2.3c10.9-11.4,17.3-24.7,21.7-39.7
	c0.3-0.9,0.5-1.8,0.8-2.7c5.1-22.1,0.3-46.2-10.7-65.6c-4.4-6.8-9.4-12.9-15.1-18.6c-0.7-0.8-1.5-1.5-2.3-2.3
	C306.4,177.8,293,171.4,278,167c-0.9-0.3-1.8-0.5-2.7-0.8C244.4,159,213,170.4,191,192z"/>
</svg>
