<?xml version="1.0" encoding="utf-8"?>
<!-- Generator: Adobe Illustrator 24.0.1, SVG Export Plug-In . SVG Version: 6.00 Build 0)  -->
<svg version="1.1" id="Layer_1" xmlns="http://www.w3.org/2000/svg" xmlns:xlink="http://www.w3.org/1999/xlink" x="0px" y="0px"
	 viewBox="0 0 512 512" style="enable-background:new 0 0 512 512;" xml:space="preserve">
<style type="text/css">
	.st0{fill:#E1A730;}
</style>
<path class="st0" d="M254.8,67.3c6.4,4.8,8.8,11.1,10,18.8c0.1,0.9,0.1,0.9,0.2,1.9c0.7-0.3,1.5-0.7,2.2-1c10.7-4.7,21.1-7.4,32.8-8
	c0.7,0,1.4-0.1,2.1-0.1c16.8-0.5,44.1,2.6,57.1,14.1c4.9,5.4,7.1,9.4,7.2,16.8c0,1.2,0.1,2.3,0.1,3.5c-1.1,8.5-5.7,13.5-11.9,19
	c-0.7,0.6-1.3,1.2-2,1.8c-5.7,5.2-10.2,7.9-17.8,9.5c-20.7,4.8-35.8,15.9-47.8,33.3c-1.8,2.9-3.5,5.9-5,9c0.8,0.2,1.5,0.4,2.3,0.6
	c8.9,3.3,15.7,8,22.7,14.4c0.9-0.4,0.9-0.4,1.7-0.8c21.3-9.5,21.3-9.5,31.3-11.2c1.3-0.2,2.5-0.5,3.8-0.7c1.4-0.1,2.8-0.2,4.2-0.3
	c1-0.1,2.1-0.1,3.1-0.2c13.2-0.4,26.6,1.7,38.7,7c7.7,3.2,15.7,2.8,23.7,0.4c2.1-0.8,2.1-0.8,4.5-2.2c0.8-8.4-5.3-14.5-10.3-20.6
	c-8.6-10.1-18.1-17.8-29.7-24.3c-3.2-1.8-4.9-3-7-6.1c0.2-3.4,0.4-6,2.2-8.9c2.6-1.6,4.7-1.9,7.8-2.1c22.6,7.5,41.5,29,53,49
	c2.1,6.3,2.2,14.3-0.6,20.4c-3.3,5.5-8.2,9.7-14.4,11.6c0.5,0.7,0.5,0.7,1.1,1.4c1.1,1.4,2.1,2.8,3.2,4.2c1.1,1.5,2.3,3.1,3.5,4.6
	c15.5,20.7,20.2,49.3,18,74.6c-0.9,6.2-3.1,10.9-7.8,15.2c-6.6,4.8-13,5.9-21,5c-1-0.3-2-0.7-3-1c0.1,1,0.2,1.9,0.3,2.9
	c2.4,27.9-7,52.6-23.5,74.9c-0.5,0.6-0.9,1.3-1.4,2c-4,5.3-8.7,9.8-15.4,11.2c-8,0.9-14.4-0.2-21-5c-1.4-1.6-2.7-3.3-4-5
	c-0.4,0.7-0.8,1.4-1.2,2.1c-4.3,7-9.1,13-14.8,18.9c-0.8,0.9-0.8,0.9-1.6,1.8c-13.6,14.9-39.4,27.7-59.6,28.7
	c-7-0.3-12.8-2.4-17.7-7.5c-3.9-5.3-5.3-10.6-6.1-17c-0.6,0.3-1.3,0.7-1.9,1c-12,5.8-24,7.6-37.2,7.4c-1.9,0-1.9,0-3.8,0
	c-17.5-0.3-40.2-3-53.6-15.5c-5.3-6.8-5.4-13.6-4.5-21.9c1-3.1,2.2-5.2,4-8c-1.3-0.3-1.3-0.3-2.7-0.6c-29-6.9-51.3-26.6-67.3-51.2
	C76.2,329,76.4,323,77,316c1.7-6.3,5.7-10.4,11-14c2.9-1.4,2.9-1.4,5-2c-0.4-0.5-0.7-0.9-1.1-1.4c-1.1-1.4-2.1-2.8-3.2-4.2
	c-1.1-1.5-2.3-3.1-3.5-4.6c-15.3-20.4-20.7-49.6-18-74.7c1.4-8.2,4.9-13.2,11.7-18.1c5.9-2.9,13.8-3.1,20-1c-0.1-1-0.2-1.9-0.3-2.9
	c-2.5-29,7.8-54.4,25.3-77.1c0.6-0.8,1.1-1.5,1.7-2.3c4.1-5.2,8.5-8.2,15.2-9.1c6.7-0.3,12.5,0.6,18.1,4.4c2,1.9,3.4,3.7,5,6
	c0.4-0.7,0.8-1.4,1.2-2.1c4.3-7,9.1-13,14.8-18.9c0.8-0.9,0.8-0.9,1.6-1.8C196.3,76,233.6,55.2,254.8,67.3z M230,82.6
	c-0.7,0.3-1.5,0.5-2.3,0.8c-21.2,7.9-39.2,20.1-49.7,40.6c-7.4,16.7-8.2,37.7-2,55c3.5,8.6,7.8,16.3,13.8,23.5
	c0.5,0.6,0.9,1.1,1.4,1.7c1.5,1.7,1.5,1.7,3.9,3.8c4,0.4,4,0.4,6.2-1.9c0.8-0.9,1.6-1.7,2.4-2.6c5-5.2,10.2-8.9,16.4-12.4
	c-0.1-0.7-0.1-1.4-0.2-2.2c-2.5-27.7,0.2-53,17.2-75.8c1.4-1.5,2.9-3,4.4-4.4c5.1-5.4,6.1-12.3,6.6-19.6c-0.1-3.8-0.1-3.8-1-7
	C241.3,78.2,236,80.3,230,82.6z M253.4,117.2c-14.5,17.2-20.6,36.5-19.4,58.8c0.3,2.7,0.6,5.3,1,8c1.5-0.2,1.5-0.2,3-0.4
	c9.4-1.3,18.5-1.8,28-1.6c0.4-0.9,0.9-1.8,1.4-2.8c12-23.9,29.6-40,54.9-49c3.3-1.1,6.4-1.9,9.8-2.6c6-1.5,9.1-5.1,13-9.6
	c1-0.9,2-1.7,3-2.6c2.2-2.3,2.2-2.3,2.6-5.4c-0.9-4-2.2-4.7-5.6-6.9c-3.2-1.3-6.5-2.2-9.9-3.1c-0.9-0.3-1.9-0.5-2.8-0.8
	C303.5,91.3,274.9,94.7,253.4,117.2z M139.6,122.8c-0.9,1.1-1.7,2.1-2.6,3.2c-0.9,1.1-0.9,1.1-1.8,2.3
	c-13.4,17.5-23.2,39.4-20.6,61.9c2.8,19.9,14.7,37.7,30.4,49.9c9.9,7.1,23.6,13,36,13c0.1-0.5,0.2-1.1,0.3-1.7
	c1.3-6.7,3-13.3,4.8-19.9c0.3-1.1,0.6-2.3,0.9-3.4c0.3-0.9,0.6-1.8,0.9-2.7c0.4-2.4,0.4-2.4-1.4-4.3c-0.8-0.7-1.5-1.3-2.3-2
	c-17.7-16.7-26-39.1-27.2-63.1c0-2.3,0.2-4.6,0.3-6.9c0.3-7.6-0.5-13.3-3.8-20.2c-0.3-0.7-0.6-1.4-1-2.1c-1.1-2.2-1.1-2.2-3.5-4.9
	C144,120.5,144,120.5,139.6,122.8z M208.9,220.5c-9.2,12.2-13.5,28.5-11.4,43.6c3.1,17.2,11.6,30.5,25.5,40.8
	c13.7,8.9,28.8,11.9,44.8,9c16.4-3.9,29.6-13.2,38.8-27.3c8.3-14.7,10.4-29.6,6.6-45.9c-4.7-15.7-14.8-28.6-29.1-36.6
	C256.9,190.4,228.3,197.9,208.9,220.5z M318,215c0.8,1.5,0.8,1.5,1.6,3.1c4.1,7.8,7.6,15.2,9.4,23.9c1.1,0.2,1.1,0.2,2.3,0.5
	c25.5,5.6,47.1,14.4,63.7,35.5c1.1,1.8,2.1,3.6,3.2,5.4c5,8.5,10.5,13,19.8,16.6c3.8,0.7,3.8,0.7,7,1c6.4-8,4.3-18.7,3.2-28.4
	c-2.5-20.4-9.5-38.5-25.4-52.3C380.6,203,341.6,195.6,318,215z M84,214c-5.5,16,1.1,41.8,8.2,56.3c8.5,15.9,21.5,27.6,38.7,33.4
	c21.5,6.6,40.7,4.9,61-4.7c0.7-0.7,1.3-1.3,2-2c-0.5-1-1.1-2.1-1.6-3.1c-4.1-7.8-7.6-15.2-9.4-23.9c-0.8-0.2-1.5-0.3-2.3-0.5
	c-25.5-5.6-47.1-14.4-63.7-35.5c-1.1-1.7-2.1-3.5-3.1-5.3c-5.1-8.8-11.5-13.7-20.9-17.7C88.9,210.6,87,211,84,214z M331,259
	c-1.8,1.8-1.5,4.8-1.8,7.3c-0.8,6.1-2.3,11.5-4.5,17.2c-0.8,2.8-0.9,3.9,0.3,6.5c1.5,1.7,1.5,1.7,3.4,3.4
	c17.3,16.8,25.4,38.9,26.6,62.6c0,2.3-0.2,4.6-0.3,6.9c-0.3,7.6,0.5,13.3,3.8,20.2c0.3,0.7,0.6,1.4,1,2.1c1.1,2.2,1.1,2.2,3.5,4.9
	c3.5,1.2,3.5,1.2,7,1c2.3-1.6,3.4-2.8,5-5c0.6-0.7,1.2-1.5,1.8-2.3c13.7-17.8,23.1-39.6,20.6-62.4c-3.4-20.7-15.8-38.8-32.7-51
	C355.2,264.2,342.5,259,331,259z M314,303c-0.7,0.7-1.3,1.4-2,2.2c-6.1,6.4-12.2,11.4-20,15.8c0.1,0.8,0.1,1.6,0.2,2.4
	c1.7,20.4,2,39.8-7.2,58.6c-0.4,0.9-0.9,1.8-1.3,2.8c-3.8,7.4-8.8,16.2-15.3,21.6c-2.2,2.6-2.4,5.5-3.1,8.9
	c-0.3,1.3-0.5,2.6-0.8,3.9c-0.5,3.9-0.4,7,0.5,10.9c3.4,2.3,5.1,2.2,9.1,1.7C290,428,305.9,419.9,318,409c0.7-0.6,1.4-1.2,2.1-1.8
	c13.4-12.4,19-29.3,19.9-47.2c0-20.9-6.8-38.1-20.6-53.6C317.2,303.8,317.2,303.8,314,303z M198.7,312.6
	c-22.4,11.1-45.6,13.1-69.7,6.4c-2.3-0.9-4.6-1.8-6.8-2.8c-8.7-3.7-18.5-2.6-27.2,0.8c-2.3,1.9-2.3,1.9-2.4,4.7
	c1.3,12.2,17.3,26.1,26.4,33.6c15.3,11.6,32.7,17.9,52,15.4c22.2-3.7,39.6-14.7,53-32.7c4.2-5.6,4.2-5.6,6-12
	c-1.7-0.9-1.7-0.9-3.4-1.7c-14.6-7.4-14.6-7.4-20.3-13.1C203.7,308.7,201.5,311.2,198.7,312.6z M267.7,329c-7.3,1.1-14.3,1.2-21.7,1
	c-0.4,0.9-0.9,1.8-1.4,2.8c-12,23.9-29.6,40-54.9,49c-3.3,1.1-6.4,1.9-9.8,2.6c-6,1.5-9.1,5.1-13,9.6c-1,0.9-2,1.7-3,2.6
	c-2.2,2.3-2.2,2.3-2.6,5.4c0.9,4,2.2,4.7,5.6,6.9c3.2,1.3,6.5,2.2,9.8,3.1c0.9,0.3,1.9,0.5,2.8,0.8c20.4,5.4,41.2,6.3,60.4-3.5
	c18-10.9,30.8-27.9,36.4-48.1c1.2-5.8,1.6-11.4,1.6-17.2c0-0.7,0-1.4,0-2.1c0-4.7-0.3-9.3-1.1-13.9C273.8,328,270.9,328.5,267.7,329
	z"/>
<path class="st0" d="M255.6-0.3c1,0,2,0,3.1,0c14.6,0,28.9,0.4,43.3,3.3c1,0.2,2,0.4,3,0.6c48.4,9.6,92.6,32,128,66.4c1,1,1,1,2,1.9
	c8.9,8.6,17.3,17.3,24.7,27.3c1.3,1.7,2.6,3.5,4,5.2c7.9,10.2,14.2,21.2,20.3,32.5c0.7,1.2,0.7,1.2,1.3,2.5
	c11.5,21.9,19.2,46.2,23.7,70.5c0.2,0.8,0.3,1.6,0.5,2.4c5.5,28.1,5.2,61.6-0.5,89.6c-0.2,1-0.4,2-0.6,3
	c-8.1,41.1-25.5,78.2-51.4,111c-0.8,1-1.6,2.1-2.5,3.1c-12.7,15.6-27.2,30.2-43.5,41.9c-1.3,1-2.7,2-4,3c-31.3,22.8-66.9,38-105,45
	c-0.8,0.2-1.6,0.3-2.4,0.5c-27.8,5.4-60.8,5.2-88.6-0.5c-0.9-0.2-1.8-0.4-2.7-0.5c-6.5-1.3-12.9-2.8-19.3-4.5
	c-0.8-0.2-1.7-0.4-2.5-0.7c-35.2-9.3-67.7-27-95.5-50.3c-0.6-0.5-1.1-0.9-1.7-1.4c-1.7-1.4-3.4-2.9-5.1-4.3c-1.5-1.3-1.5-1.3-3-2.5
	c-2.7-3.3-3.1-5.5-3.2-9.7c1.9-3.5,3.2-4.7,6.9-6.1c5.9,0.1,9.2,4.2,13.4,8c16.8,15.4,37.1,27.6,57.8,37.1c0.7,0.3,1.4,0.7,2.2,1
	c19.4,8.9,39.9,14.4,60.8,18c1.2,0.2,2.5,0.4,3.8,0.6c60.5,9.2,125-7.2,174.2-43.2c9.2-6.9,17.8-14.4,26-22.4c0.5-0.5,1.1-1,1.6-1.6
	c8.3-7.9,15.6-16.2,22.4-25.4c0.4-0.6,0.9-1.1,1.3-1.7c31-41.6,47.2-91.2,47-142.9c0-0.9,0-1.8,0-2.8c0-13.7-0.5-27-3.3-40.5
	c-0.2-0.9-0.3-1.7-0.5-2.6c-7-35.9-21.5-70.7-44.5-99.4c-1-1.2-1-1.2-1.9-2.5C433.2,93.3,419.4,78.7,404,67
	c-0.6-0.5-1.2-0.9-1.9-1.4c-50.5-38.8-115-55.6-178.1-47.4c-43,6.1-83.2,22.5-117.1,49.8c-0.9,0.7-0.9,0.7-1.8,1.4
	C91.2,80.8,77.8,93.6,67,108c-0.7,0.9-0.7,0.9-1.4,1.8C42,140.5,27.5,175.2,20,213c-0.2,0.8-0.3,1.6-0.5,2.4
	c-5.7,28.5-4.6,61.3,1.5,89.6c0.2,1,0.4,2,0.6,3c7.9,35.1,23.2,68.6,46,96.6c2.1,2.7,2.3,3.6,2.9,7.2c-0.6,3.2-0.6,3.2-2.1,5.7
	c-2.8,1.7-5,2.4-8.4,2.3c-7.4-2.4-12.9-13.4-17-19.6c-0.6-0.9-1.2-1.8-1.8-2.8C22.3,368.2,9.4,336.2,3,302c-0.2-0.8-0.3-1.6-0.5-2.4
	C-3,271.5-2.7,238,3,210c0.3-1.5,0.3-1.5,0.6-3c7.6-38.6,23.3-74.8,47.4-106c1-1.3,1-1.3,1.9-2.5C67.1,80.5,83.4,63.3,102,50
	c0.5-0.4,1.1-0.8,1.6-1.2c21-15.2,43.8-27.5,68.4-35.8c1.2-0.4,1.2-0.4,2.5-0.8c9.8-3.2,19.7-5.8,29.7-7.9c0.9-0.2,1.8-0.4,2.8-0.6
	C223.2,0.4,239.1-0.4,255.6-0.3z"/>
<path class="st0" d="M304,31c1,0.2,2,0.4,3,0.6c40.9,9.1,78.4,29.3,108.3,58.7c1.6,1.6,3.3,3.2,4.9,4.7c7.4,7.1,13.7,14.8,19.8,22.9
	c0.4,0.5,0.8,1.1,1.3,1.6c20.9,27.5,33.9,59.7,40.7,93.4c0.2,1.2,0.2,1.2,0.5,2.4c5.7,28.2,4.6,60.6-1.5,88.6
	c-0.3,1.5-0.3,1.5-0.6,3c-7.6,34-22.7,64.8-44.4,92c-0.4,0.6-0.9,1.1-1.3,1.7c-11.3,14.2-24.3,27.3-39,38.1
	c-1.7,1.2-3.3,2.5-4.9,3.7c-38.5,28.9-86.2,43-134.1,42.9c-1.4,0-1.4,0-2.8,0c-15.6,0-30.6-1.1-45.9-4.4c-1.5-0.3-1.5-0.3-3-0.6
	c-20-4.5-38.9-11.6-57-21.4c-0.7-0.4-1.3-0.7-2-1.1c-28.1-14.9-53.8-36.6-72.7-62.2c-1.2-1.7-2.5-3.3-3.8-5
	C48,362.1,35,328.1,29,293c-0.2-1.1-0.4-2.2-0.6-3.3c-1.7-11-1.8-21.9-1.8-33c0-1,0-1.9,0-2.9c0-15.6,0.9-30.5,4.4-45.7
	c0.2-1,0.4-2,0.6-3c9.2-40.9,29.2-78.4,58.7-108.4c1.6-1.6,3.2-3.3,4.7-4.9c7.1-7.4,14.8-13.7,22.9-19.8c0.5-0.4,1.1-0.8,1.6-1.3
	C147.1,49.8,179.3,36.9,213,30c1.2-0.2,1.2-0.2,2.4-0.5C243.6,23.8,276,24.9,304,31z M103.3,106.5C79.4,129.9,62,160.2,52,192
	c-0.3,1-0.3,1-0.7,2.1c-1.7,5.3-3.1,10.5-4.3,15.9c-0.3,1.3-0.3,1.3-0.6,2.6C40,240.9,40.3,273.7,47,302c0.2,1,0.5,2.1,0.7,3.1
	c13.4,55.4,48.6,104,97.3,133.7c14.9,8.9,30.4,16,46.9,21.2c0.7,0.2,1.4,0.4,2.1,0.7c42,13.3,87.2,11.9,128.9-1.7
	c0.8-0.2,1.5-0.5,2.3-0.7c53.2-17.1,96.3-57.7,122-106.6c13.1-25.8,21.6-55.6,21.9-84.6c0-0.8,0-1.7,0-2.5c0.2-18.5,0-36.4-4.3-54.5
	c-0.2-1-0.5-2.1-0.7-3.1c-13.5-55.9-49.2-104.2-98.2-134.3C282.4,22.8,177.7,36.5,103.3,106.5z"/>
<path class="st0" d="M275.2,230.5c5.9,4.7,10.4,11,11.8,18.5c0.8,11-0.2,19.5-7.1,28.3c-5,5.4-12.5,9.3-19.9,9.9
	c-11,0.2-19.1-1.5-27.2-9.2c-7.3-8.6-8.6-18.2-7.8-29.1c1.8-8.1,6.4-14.9,13.3-19.6C250,222.7,263.9,222.8,275.2,230.5z
	 M243.7,246.5c-2.8,4.3-3.6,8.4-2.7,13.5c1.7,4.9,4.4,8,9.1,10.3c4.1,1.4,7.7,1.4,11.8,0c4.7-2.3,7.4-5.4,9.1-10.3
	c1-5.1,0.1-9.2-2.7-13.5c-2.8-3.3-6-5.1-10.3-5.9C252.2,240.3,247.5,242.1,243.7,246.5z"/>
</svg>
