<?xml version="1.0" encoding="utf-8"?>
<!-- Generator: Adobe Illustrator 24.0.1, SVG Export Plug-In . SVG Version: 6.00 Build 0)  -->
<svg version="1.1" id="Layer_1" xmlns="http://www.w3.org/2000/svg" xmlns:xlink="http://www.w3.org/1999/xlink" x="0px" y="0px"
	 viewBox="0 0 512 512" style="enable-background:new 0 0 512 512;" xml:space="preserve">
<style type="text/css">
	.st0{fill:#E1A730;}
</style>
<g transform="translate(0.000000,512.000000) scale(0.100000,-0.100000)">
	<path class="st0" d="M2335,4999c-498-41-984-234-1370-546c-129-104-319-300-416-428c-264-351-429-758-490-1205
		c-17-122-17-478,0-600c49-360,182-735,364-1022C785,625,1380,215,2037,86c190-38,309-49,498-48c183,1,285,10,465,44
		c96,18,119,25,142,49c38,37,37,81-1,120c-34,34-44,34-143,13c-96-20-271-44-330-44h-48v460c0,455,0,460,20,460c68,0,326-34,449-60
		c131-27,146-28,172-15c46,25,61,68,38,118c-6,12-18,28-28,34c-46,29-345,81-568,98l-83,7v554v554h621h621l-7-112
		c-3-62-10-148-15-191c-10-86-4-116,32-141c61-43,131-4,142,80c8,59,25,286,26,332v32h395h395v-70c0-56,4-74,20-90
		c49-49,131-29,149,37c16,55,13,348-4,493c-67,575-314,1083-726,1491C3765,4792,3040,5057,2335,4999z M2440,4366c0-250-3-457-7-459
		c-25-15-346,26-513,65c-129,29-360,109-360,123c0,15,96,169,152,245c179,240,395,401,618,459c41,11,83,20,93,20
		C2439,4820,2440,4792,2440,4366z M2760,4789c150-44,279-127,430-278c108-108,204-235,284-373c33-56,41-50-129-106
		c-198-66-427-110-657-125l-68-5v460v459l38-7C2678,4811,2724,4800,2760,4789z M1712,4616c-44-46-108-120-140-165
		c-51-68-80-112-169-259l-14-22l-37,19c-34,18-145,94-201,139l-23,19l78,55c146,103,341,205,514,272c36,14,67,25,69,26
		C1791,4700,1756,4662,1712,4616z M3480,4615c151-68,440-243,440-266c0-16-231-179-254-179c-2,0-19,26-36,58
		c-63,111-170,259-265,365l-95,107l66-25C3373,4661,3438,4634,3480,4615z M1055,4174c44-37,225-159,247-166c5-2-8-41-28-88
		c-138-329-232-762-252-1165l-7-140l-393-3l-392-2v32c0,58,20,210,41,318c69,357,221,689,448,980c90,115,261,291,275,283
		C1000,4219,1028,4197,1055,4174z M4156,4148c372-380,591-828,659-1351c8-65,15-134,15-153v-34h-395h-395v28c0,79-23,334-41,457
		c-40,275-103,522-195,761c-30,78-54,144-54,146c0,3,38,28,85,57c47,28,117,78,157,111s75,59,78,60C4073,4230,4112,4193,4156,4148z
		 M1591,3880c196-72,422-122,644-141c66-6,139-13,163-15l42-5v-555v-554h-622h-621l6,143c14,340,94,726,212,1033
		c47,122,53,134,62,134C1480,3920,1531,3902,1591,3880z M3633,3801c123-315,199-683,222-1078l7-113h-621h-621v554v555l43,5
		c23,3,80,8,127,11c203,14,458,69,655,140c66,23,125,43,131,44S3608,3867,3633,3801z M1020,2345c0-105,24-340,51-500
		c41-242,114-503,200-715c22-52,36-96,32-97c-26-9-180-111-243-162l-75-60l-83,82c-365,360-605,861-661,1379c-6,54-11,111-11,128v30
		h395h395V2345z M2440,1876v-554l-77-6c-161-13-341-37-453-62c-92-20-326-92-422-129c-19-8-25,5-89,174c-107,284-181,661-196,989
		l-6,142h621h622V1876z M2440,680c0-253-3-460-7-460c-31,0-185,45-239,70c-152,69-316,203-446,365c-61,76-188,273-188,292
		c0,26,337,126,535,158c94,15,240,31,313,34l32,1V680z M1451,772c73-125,160-241,261-347c44-47,77-85,74-85c-20,0-228,90-324,140
		c-115,61-299,177-320,203c-10,12-2,22,44,58c68,52,185,128,199,128C1391,869,1420,825,1451,772z"/>
	<path class="st0" d="M4745,2184c-44-14-76-42-277-241l-226-225l-434,197c-305,140-444,198-471,199c-34,0-45-7-127-89
		c-94-93-114-131-91-173c6-11,159-145,341-297c181-152,330-280,330-284c0-3-101-107-224-230l-224-224l-130,17c-209,26-205,27-279-47
		c-56-57-63-68-63-104c0-28,6-45,23-60c12-12,101-65,197-118s180-102,187-108c6-7,55-91,108-187s104-183,113-192c11-13,30-18,66-18
		c49,0,54,3,103,53c29,28,56,63,61,77c6,17,3,76-10,179l-20,154l223,224c123,122,227,223,231,223c3,0,131-148,283-330
		c152-181,285-334,295-340c47-25,71-13,172,88c73,73,98,105,98,124c0,14-90,224-201,467l-201,443l225,226c216,218,226,229,242,286
		c28,94,9,173-59,244C4941,2188,4839,2214,4745,2184z M4875,1995c27-27,31-45,14-78c-6-12-119-130-250-262c-191-193-239-246-239-267
		c0-15,90-226,201-469c186-411,213-481,171-455c-6,3-134,154-286,335c-151,180-282,331-291,335c-54,20-61,14-368-291
		c-164-164-303-308-308-321s-4-54,2-103c6-44,9-82,7-84c-2-3-26,35-53,83c-26,48-55,95-63,105c-9,10-58,41-109,69s-91,53-89,56
		c3,2,44-1,91-7c80-11,88-10,118,8c57,35,585,574,592,604c4,15,4,38,1,51c-4,17-118,119-341,306c-184,155-335,285-335,290
		s4,11,10,15c5,3,208-84,450-195c243-110,450-200,461-200s30,5,42,11s130,119,262,250c171,170,247,239,263,239
		C4841,2020,4862,2009,4875,1995z"/>
</g>
</svg>
