<?xml version="1.0" encoding="utf-8"?>
<!-- Generator: Adobe Illustrator 24.0.1, SVG Export Plug-In . SVG Version: 6.00 Build 0)  -->
<svg version="1.1" id="Layer_1" xmlns="http://www.w3.org/2000/svg" xmlns:xlink="http://www.w3.org/1999/xlink" x="0px" y="0px"
	 viewBox="0 0 512 512" style="enable-background:new 0 0 512 512;" xml:space="preserve">
<style type="text/css">
	.st0{fill:#E1A730;}
</style>
<path class="st0" d="M243.2-0.2c0.9,0,1.9,0,2.9,0c39-0.3,39-0.3,55.9,3.2c1,0.2,2,0.4,3,0.6C343.6,11.2,379.7,27,411,51
	c0.8,0.6,1.6,1.2,2.5,1.9c17.1,13.3,33.4,28.9,46.3,46.4c1.3,1.7,2.6,3.5,4,5.2c7.9,10.2,14.2,21.2,20.3,32.5
	c0.7,1.2,0.7,1.2,1.3,2.5c11.5,21.9,19.2,46.2,23.7,70.5c0.2,0.8,0.3,1.6,0.5,2.4c5.5,28.1,5.2,61.6-0.5,89.6c-0.2,1-0.4,2-0.6,3
	c-8.1,41.1-25.5,78.2-51.4,111c-0.8,1-1.6,2.1-2.5,3.1c-12.7,15.6-27.2,30.1-43.5,41.9c-1.1,0.8-2.2,1.6-3.3,2.5
	C376.5,486.7,340.2,502,302,509c-0.8,0.2-1.6,0.3-2.4,0.5c-28.1,5.5-61.6,5.3-89.6-0.5c-1-0.2-2-0.4-3.1-0.6
	c-33.4-6.7-67.2-19.3-94.9-39.4c-0.6-0.4-1.2-0.9-1.8-1.3c-4.8-3.5-9.5-7-14.2-10.7c-0.5-0.4-1.1-0.8-1.6-1.3
	c-15.7-12.3-30.5-26.9-42.1-43.1c-1.3-1.7-2.6-3.4-3.9-5.1C25.6,378,11.2,342.1,3.8,305.8c-0.2-1.1-0.2-1.1-0.5-2.2
	c-3-15.7-3.7-31.2-3.6-47.2c0-1,0-2,0-3.1c0-14.6,0.4-28.9,3.3-43.3c0.3-1.5,0.3-1.5,0.6-3C13,159.3,35,115,69,80
	c0.7-0.7,1.4-1.4,2.1-2.2c9.7-10,19.5-19.6,30.9-27.8c0.6-0.4,1.2-0.9,1.9-1.4C144,19.8,193.3,0,243.2-0.2z M242.6,37.4
	c-1.5,1.6-3,3.2-4.4,4.7c-3.2,3.4-6.5,6.9-9.6,10.4c-2.1,2.2-3.8,3.4-6.9,3.7c-0.9,0-1.7,0-2.6,0c-1.3,0-1.3,0-2.6,0
	C214,56,214,56,211,55c-1.5-4.5-2-8.3-1-13c2.5-3.8,5.7-6.8,9-10c1.7-1.7,3.4-3.4,5.1-5.1c1.3-1.3,2.6-2.6,3.9-3.9
	c-10.4-5.2-35.5,5.5-46,9c-7.7,2.6-15.1,5.7-22.5,9c-2.3,1-4.6,1.8-7,2.7c-4.8,1.8-9,3.7-11.6,8.4c-2.1,5.1-3.2,10.5-4.2,15.9
	c-1.2,5.8-2.8,11.4-4.3,17.1c-0.3,1.1-0.6,2.2-0.8,3.4c-2.5,9.8-2.5,9.8-6.5,13.6c-3.6,1.8-7.6,1.5-11.3,0.2
	c-2.2-1.6-2.8-2.7-3.7-5.2c-0.4-6,0.9-11,2.6-16.8c0.5-1.7,1-3.4,1.4-5c0.3-1.1,0.3-1.1,0.7-2.2c0.5-2.2,0.5-2.2-0.7-5
	c-20.3,16.2-37.7,34.2-52.8,55.4c-1,1.4-2,2.7-3,4c-3.2,4.3-3.4,7.1-2.8,12.4c1.5,8.3,4.1,16.4,6.4,24.5c0.7,2.5,1.4,4.9,2.1,7.4
	c0.2,0.7,0.4,1.5,0.7,2.2c1.4,5.2,2.5,10.2,0.7,15.5c-1.6,2.2-2.7,2.8-5.2,3.7c-4.3,0.3-7.4,0.4-11-2c-1.1-2.1-1.1-2.1-2-4.7
	c-0.3-1-0.7-1.9-1-2.9c-1.5-5.1-2.8-10.2-4.1-15.4c-0.3-1-0.6-2-0.9-3c-0.7-0.3-1.3-0.7-2-1c-8.1,19.5-13.9,39.7-16.9,60.7
	c-0.1,0.8-0.2,1.6-0.4,2.4c-0.2,1.6-0.4,3.3-0.5,4.9c-0.2,2.9-0.2,2.9-0.9,6.8c-0.7,5.5-1,10.5,2,15.4c4.4,5.6,9.7,10.4,15,15.2
	c1.6,1.5,3.1,3,4.7,4.5c3.4,3.3,6.9,6.5,10.4,9.7c2.1,2.2,3.4,3.8,3.7,6.9c0,0.9,0,1.7,0,2.6s0,1.7,0,2.6C56,298,56,298,55,301
	c-4.5,1.5-8.3,2-13,1c-3.8-2.5-6.8-5.7-10-9c-1.7-1.7-3.4-3.4-5.1-5.1c-1.3-1.3-2.6-2.6-3.9-3.9c-5.2,10.4,5.5,35.5,9,46
	c2.6,7.7,5.7,15.1,9,22.5c1,2.3,1.8,4.6,2.6,6.9c1.9,5.1,3.8,9.1,8.8,11.7c6,2.3,12.1,3.7,18.4,5.1c4.4,1,8.6,2.1,12.9,3.2
	c2,0.5,4,1,5.9,1.5c9,2.3,9,2.3,12.4,4c1.9,3.9,1.6,9.3,0.2,13.3c-1.6,2.2-2.7,2.8-5.2,3.7c-6,0.4-11-0.9-16.8-2.6
	c-1.7-0.5-3.4-1-5-1.4c-0.7-0.2-1.5-0.4-2.2-0.7c-2.2-0.5-2.2-0.5-5,0.7c16.2,20.3,34.2,37.7,55.4,52.8c1.4,1,2.7,2,4,3
	c4.3,3.2,7.1,3.4,12.4,2.8c8.3-1.5,16.4-4.1,24.5-6.4c2.5-0.7,4.9-1.4,7.4-2.1c1.1-0.3,1.1-0.3,2.2-0.7c5.2-1.4,10.2-2.5,15.5-0.7
	c2.2,1.6,2.8,2.7,3.7,5.2c0.3,4.3,0.4,7.4-2,11c-2.1,1.1-2.1,1.1-4.7,2c-1,0.3-1.9,0.7-2.9,1c-5.1,1.5-10.2,2.8-15.4,4.1
	c-1,0.3-2,0.6-3,0.9c-0.3,0.7-0.7,1.3-1,2c19.5,8.1,39.7,13.9,60.7,16.9c0.8,0.1,1.6,0.2,2.4,0.4c1.6,0.2,3.3,0.4,4.9,0.5
	c2.9,0.2,2.9,0.2,6.8,0.9c5.5,0.7,10.5,1,15.4-2c5.6-4.4,10.4-9.7,15.2-15c1.5-1.6,3-3.1,4.5-4.7c3.3-3.4,6.5-6.9,9.7-10.4
	c2.2-2.1,3.8-3.4,6.9-3.7c0.9,0,1.7,0,2.6,0s1.7,0,2.6,0c2.4,0.2,2.4,0.2,5.4,1.2c1.5,4.5,2,8.3,1,13c-2.5,3.8-5.7,6.8-9,10
	c-1.7,1.7-3.4,3.4-5.1,5.1c-1.3,1.3-2.6,2.6-3.9,3.9c2.5,1.3,3.6,0.9,6.3,0.4c0.9-0.2,1.8-0.3,2.7-0.5c1.4-0.3,1.4-0.3,2.9-0.5
	c1.5-0.3,1.5-0.3,3-0.6c17-3.3,33.1-8.1,49.1-14.6c1.9-0.8,3.8-1.5,5.7-2.2c10.1-3.7,10.1-3.7,17.4-11c2.2-5.1,3.2-10.4,4.1-15.8
	c1.1-5.8,2.8-11.4,4.4-17.1c1.2-4.7,1.2-4.7,2.5-9.4c0.8-2.6,1.6-5.1,2.8-7.6c3.9-1.9,9.3-1.6,13.3-0.2c2.2,1.6,2.8,2.7,3.7,5.2
	c0.4,6-0.9,11-2.6,16.8c-0.5,1.7-1,3.4-1.4,5c-0.2,0.7-0.4,1.5-0.7,2.2c-0.5,2.2-0.5,2.2,0.7,5c20.3-16.2,37.7-34.2,52.8-55.4
	c1-1.4,2-2.7,3-4c3.2-4.3,3.4-7.1,2.8-12.4c-1.5-8.3-4.1-16.4-6.4-24.5c-0.7-2.5-1.4-4.9-2.1-7.4c-0.3-1.1-0.3-1.1-0.7-2.2
	c-1.4-5.2-2.5-10.2-0.7-15.5c1.6-2.2,2.7-2.8,5.2-3.7c4.3-0.3,7.4-0.4,11,2c1.1,2.1,1.1,2.1,2,4.7c0.3,1,0.7,1.9,1,2.9
	c1.5,5.1,2.8,10.2,4.1,15.4c0.3,1,0.6,2,0.9,3c0.7,0.3,1.3,0.7,2,1c8.1-19.5,13.9-39.7,16.9-60.7c0.1-0.8,0.2-1.6,0.4-2.4
	c0.2-1.6,0.4-3.3,0.5-4.9c0.2-2.9,0.2-2.9,0.9-6.8c0.7-5.5,1-10.5-2-15.4c-4.4-5.6-9.7-10.4-15-15.2c-1.6-1.5-3.1-3-4.7-4.5
	c-3.4-3.3-6.9-6.5-10.4-9.7c-2.1-2.2-3.4-3.8-3.7-6.9c0-0.9,0-1.7,0-2.6c0-0.9,0-1.7,0-2.6c0.2-2.4,0.2-2.4,1.2-5.4
	c4.5-1.5,8.3-2,13-1c3.8,2.5,6.8,5.7,10,9c1.7,1.7,3.4,3.4,5.1,5.1c1.3,1.3,2.6,2.6,3.9,3.9c1.3-2.5,0.9-3.6,0.4-6.3
	c-0.2-0.9-0.3-1.8-0.5-2.7c-0.3-1.4-0.3-1.4-0.5-2.9c-0.3-1.5-0.3-1.5-0.6-3c-3.3-17-8.1-33.1-14.6-49.1c-0.8-1.9-1.5-3.8-2.2-5.7
	c-3.6-10.3-3.6-10.3-11.4-17.6c-5.9-2.4-12.1-3.8-18.3-5c-4.3-0.9-8.6-1.9-12.9-3c-2-0.5-4-1-6-1.5c-5-1.2-8.7-2.3-12.4-6.1
	c-1.8-3.6-1.5-7.6-0.2-11.3c1.6-2.2,2.7-2.8,5.2-3.7c6-0.4,11,0.9,16.8,2.6c1.7,0.5,3.4,1,5,1.4c0.7,0.2,1.5,0.4,2.2,0.7
	c2.2,0.5,2.2,0.5,5-0.7c-16.2-20.3-34.2-37.7-55.4-52.8c-1.4-1-2.7-2-4-3c-4.3-3.2-7.1-3.4-12.4-2.8c-8.3,1.5-16.4,4.1-24.5,6.4
	c-2.5,0.7-4.9,1.4-7.4,2.1c-0.7,0.2-1.5,0.4-2.2,0.7c-5.2,1.4-10.2,2.5-15.5,0.7c-2.2-1.6-2.8-2.7-3.7-5.2c-0.3-4.3-0.4-7.4,2-11
	c2.1-1.1,2.1-1.1,4.7-2c1-0.3,1.9-0.7,2.9-1c5.1-1.5,10.2-2.8,15.4-4.1c1-0.3,2-0.6,3-0.9c0.3-0.7,0.7-1.3,1-2
	c-18.7-7.6-37.4-13.1-57.3-16.4c-1-0.2-2-0.3-3-0.5c-3.2-0.5-6.4-0.8-9.7-1.1c-0.7-0.1-1.3-0.2-2-0.3
	C259.8,18.1,252.9,25.9,242.6,37.4z"/>
<path class="st0" d="M255.6,145.6c0.7,0,1.3,0,2,0c25.5,0.1,50.2,8.4,69.4,25.4c0.8,0.7,1.6,1.4,2.5,2.1
	c20.1,17.3,32.7,41.7,36.5,67.9c1.8,31.5-3.5,61.7-25,86c-0.7,0.8-1.4,1.6-2.1,2.5c-17.3,20.1-41.7,32.7-67.9,36.5
	c-16.1,0.9-32.5,1.1-48-4c-1-0.3-1-0.3-1.9-0.6c-28.7-9.7-51.6-29.9-65-57c-7.4-15.5-10.5-30.8-10.5-47.9c0-0.7,0-1.3,0-2
	c0.1-30,12-56.3,32.6-78.1C199.4,156.2,226.4,145.6,255.6,145.6z M242,168c-0.1,2.9-0.1,5.7-0.1,8.6c0,0.9,0,1.7,0,2.6
	c0,2.8,0,5.5,0,8.3c0,1.9,0,3.7,0,5.6c0,4.6,0,9.2,0,13.8c9.2,0,18.5,0,28,0c0-5.5,0-11.1,0.1-16.6c0-1.9,0-3.8,0-5.7
	c0-2.7,0-5.4,0-8.1c0-0.8,0-1.7,0-2.6c0-2-0.1-4-0.1-6.1c-1.8-1.8-4.4-1.1-6.8-1.1c-1.7,0-1.7,0-3.5,0s-1.8,0-3.7,0
	c-1.2,0-2.5,0-3.7,0s-2.3,0-3.5,0c-1.1,0-2.2,0-3.3,0C243.1,166.7,243.1,166.7,242,168z M192,193c-0.6,0.6-1.2,1.1-1.9,1.7
	c-1.4,1.3-1.4,1.3-1.1,3.3c4.2,1.4,8.4,2.9,12.7,4.3c1.4,0.5,2.9,1,4.3,1.5c2.1,0.7,4.1,1.4,6.2,2.1c1.2,0.4,2.5,0.8,3.8,1.3
	c3,1.1,3,1.1,6.1,0.9c0-11.2,0-22.4,0-34C211.3,174,199.5,186.1,192,193z M290,174c0,11.2,0,22.4,0,34c8.2-1.6,8.2-1.6,16-3.9
	c1.5-0.5,1.5-0.5,3-1.1c1-0.4,2-0.7,3.1-1.1c1.1-0.4,2.1-0.7,3.2-1.1c2.6-0.9,5.1-1.8,7.7-2.7c-4.9-10.5-19.4-19.6-30-24
	C292,174,291,174,290,174z M176,216c-4.4,7.9-8,16.9-8,26c12.5,4,25.1,7.9,38,12c0.7-4,1.3-7.9,2-12c1.3-3.7,1.3-3.7,2.6-6.6
	c0.4-1,0.9-2,1.3-3c0.7-1.5,1.4-2.9,2.1-4.4c-5.1-1.7-10.2-3.4-15.3-5.1c-1.7-0.6-3.5-1.2-5.2-1.7c-2.5-0.8-5-1.7-7.5-2.5
	c-0.8-0.3-1.6-0.5-2.4-0.8C179.9,216.5,179.9,216.5,176,216z M325.9,218.6c-0.8,0.3-1.6,0.5-2.4,0.8c-2.5,0.9-5.1,1.7-7.6,2.6
	c-1.7,0.6-3.5,1.2-5.2,1.7c-4.2,1.4-8.5,2.8-12.7,4.3c0.3,0.8,0.7,1.5,1,2.3c0.5,1,0.9,2,1.4,3c0.4,1,0.9,2,1.4,3
	c2.6,5.9,3.5,11.5,4.2,17.8c4.9-1.5,9.9-3.1,14.8-4.6c1.7-0.5,3.4-1.1,5-1.6c2.4-0.8,4.8-1.5,7.2-2.3c0.8-0.2,1.5-0.5,2.3-0.7
	c2.9-0.9,5.8-1.8,8.7-2.8c-0.3-5.6-1.7-10.5-3.4-15.8c-0.2-0.7-0.4-1.3-0.7-2c-1-3.1-2.1-5.5-3.9-8.2
	C332.5,216,329.2,217.5,325.9,218.6z M232,238c-5.1,8-5.7,15.6-5,25c1.8,7.1,6.1,13.4,12.3,17.5c8.3,4.7,16.9,6.2,26.4,3.8
	c9-3.7,14.3-9.6,18.3-18.3c2.3-6.8,2.1-15.3-0.6-21.9c-4.6-8.7-11-13.9-20.4-17.1C250.1,226,240.8,228.2,232,238z M167,264
	c0.6,13.9,5.5,25.9,12,38c4.5-4.2,8-9,11.6-14c0.6-0.8,1.1-1.6,1.7-2.4c2.7-3.8,5.3-7.6,7.6-11.6c-4.2-1.4-8.4-2.9-12.7-4.3
	c-1.4-0.5-2.9-1-4.3-1.5c-2.1-0.7-4.1-1.4-6.2-2.1c-1.2-0.4-2.5-0.8-3.8-1.3C170.1,263.9,170.1,263.9,167,264z M335.1,266.2
	c-1,0.3-1,0.3-2,0.7c-2.1,0.7-4.2,1.4-6.3,2.1c-1.4,0.5-2.9,1-4.3,1.4c-3.5,1.2-7,2.4-10.5,3.6c4.1,6.3,8.4,12.4,12.8,18.5
	c0.6,0.8,1.2,1.6,1.7,2.5c0.6,0.8,1.1,1.5,1.7,2.3c0.5,0.7,1,1.4,1.5,2.1c1.2,1.8,1.2,1.8,3.3,2.6c6.5-12.1,11.4-24.1,12-38
	C341.3,264,338.6,265,335.1,266.2z M216,288c-7.7,10.3-15.4,20.6-23,31c3.2,3.3,6.4,6.3,10,9.1c0.8,0.7,1.6,1.3,2.5,2
	c3.6,2.7,3.6,2.7,7.5,4.9c3.5-1.2,5.1-3.1,7.2-6c0.6-0.8,1.2-1.6,1.8-2.4s1.2-1.7,1.8-2.6s1.2-1.7,1.9-2.6
	c4.2-5.8,8.3-11.5,12.3-17.4c-3.8-3-7.9-5.5-12.1-8C222.4,293.6,219.2,290.9,216,288z M295,288c-1.3,1.5-1.3,1.5-2.6,3
	c-5.2,5.3-11.9,8.5-18.4,12c2.9,5.3,6.1,10.1,9.8,14.9c0.8,1,0.8,1,1.6,2.1c3.8,5,7.7,10,11.6,15c8.4-2.9,15.4-9.3,22-15
	c-4.2-6.4-8.6-12.6-13.1-18.8c-0.6-0.8-1.2-1.7-1.8-2.5c-0.6-0.8-1.2-1.6-1.8-2.4c-0.5-0.7-1.1-1.4-1.6-2.2
	C298.9,291.9,297,289.9,295,288z M255,316c-1.3,1.3-1.3,1.3-2.6,3.1c-0.5,0.7-1,1.3-1.5,2s-1.1,1.4-1.6,2.2
	c-0.5,0.7-1.1,1.5-1.6,2.2c-4,5.4-7.9,10.9-11.7,16.4c2.8,2.8,5.9,2.8,9.8,3.2c0.8,0.1,1.5,0.2,2.3,0.3c9.4,1,19,0.8,28-2.4
	c-2.9-5.4-6.3-10.3-10.1-15.2c-0.8-1-0.8-1-1.6-2.1c-1-1.3-2-2.7-3-4c-1-1.4-2.1-2.8-3-4.2c-0.4-0.5-0.8-1-1.3-1.5
	C256.3,316,255.7,316,255,316z"/>
<path class="st0" d="M245.9,93.8c0.7,0,1.5,0,2.2,0c30.4-0.2,30.4-0.2,43.8,3.2c0.8,0.2,1.6,0.4,2.4,0.6C325,105,351,120.5,373,143
	c0.8,0.8,0.8,0.8,1.7,1.6c26,24.5,41.7,63.2,43.5,98.4c0.1,4.2,0.1,8.5,0.1,12.7c0,0.7,0,1.5,0,2.3c-0.2,45.4-18.5,84.3-50.3,116.1
	c-0.5,0.5-1,1.1-1.5,1.6c-23.8,25.6-63.2,40.8-97.5,42.6c-4.2,0.1-8.5,0.1-12.7,0.1c-0.7,0-1.5,0-2.3,0
	c-45.3-0.2-84.4-18.5-116.1-50.3c-0.5-0.5-1.1-1.1-1.7-1.6c-25.2-24.6-41.9-63.1-42.6-98.2c0-0.7,0-1.4,0-2c0-0.7,0-1.5,0-2.2
	c-0.2-16.3,0.1-32,4.3-47.9c0.2-0.7,0.4-1.4,0.6-2.2c2.1-7.8,4.9-15.4,7.9-22.9c0.3-0.7,0.5-1.4,0.8-2.1c2-4.9,4.7-11.4,9.7-13.8
	c5.3-0.3,8.7-0.5,13,3c2.1,3.5,2.3,6.2,1.7,10.2c-1.1,4.1-3,7.7-4.9,11.4c-5.7,11.8-9.2,25.4-10.9,38.4c-0.2,1.3-0.2,1.3-0.3,2.6
	c-3.8,35.2,6,72.9,28.1,100.8c3.6,4.3,7.3,8.5,11.2,12.6c0.8,0.8,1.5,1.6,2.3,2.5c22.7,23.8,57.4,38.9,90.1,39.8c2.7,0,5.3,0,8,0
	c0.7,0,1.4,0,2.1,0c12.2,0,23.7-1.2,35.4-4.4c0.7-0.2,1.4-0.4,2.1-0.6c14.5-4,28.7-10.8,40.9-19.4c1-0.7,2-1.4,3-2.1
	c31.2-23,50.5-56.5,56.6-94.6c0.7-6.2,0.8-12.5,0.8-18.7c0-1,0-1,0-2.1c0-12.2-1.2-23.7-4.4-35.4c-0.2-0.7-0.4-1.3-0.5-2
	c-6.3-23-18.9-43-35.5-60c-0.7-0.8-1.4-1.6-2.2-2.4c-20.6-21.9-50.5-34.5-79.8-38.6c-0.9-0.1-1.8-0.3-2.7-0.4
	c-26-3.2-54.7,1.8-77.8,14.3c-4.5,2.3-7.5,2.8-12.5,2.1c-3.2-1.3-4.6-2.3-6.4-5.2c-0.8-3.7-1.1-7.3,0.4-10.8c4.1-4,8.2-6.3,13.4-8.5
	c1-0.4,1-0.4,2.1-0.9C208,99.4,226.9,93.9,245.9,93.8z"/>
<path class="st0" d="M152,138c3,1.8,5.4,3.9,7,7c0.4,5,0.2,8.1-3,12c-3.4,2.6-6.8,2.5-11,2c-3-1.8-5.4-3.9-7-7
	c-0.7-5.9-0.7-5.9,1-8.8C143.1,138.3,145.6,137.4,152,138z"/>
</svg>
