<?xml version="1.0" encoding="utf-8"?>
<!-- Generator: Adobe Illustrator 24.0.1, SVG Export Plug-In . SVG Version: 6.00 Build 0)  -->
<svg version="1.1" id="Layer_1" xmlns="http://www.w3.org/2000/svg" xmlns:xlink="http://www.w3.org/1999/xlink" x="0px" y="0px"
	 viewBox="0 0 1417 477" style="enable-background:new 0 0 1417 477;" xml:space="preserve">
<style type="text/css">
	.st0{fill:#FFFFFF;}
</style>
<g transform="translate(0.000000,628.000000) scale(0.100000,-0.100000)">
	<path class="st0" d="M2273,6201c-25-16-52-60-133-223c-57-112-369-732-695-1378C122,1976,90,1912,90,1862c0-100,77-182,172-182
		c35,0,1318,301,1581,371l37,10v984c0,650,3,985,10,985s10-334,10-981v-981l27,7c54,13,119,76,142,138c6,15,25,190,42,390
		c30,350,31,375,25,740c-5,330-4,377,9,377s15-22,15-135c0-79,4-135,10-135c5,0,11,15,14,33c10,58,29,328,24,333c-3,2-37-1-76-8
		c-69-12-103-6-72,12c111,65,154,98,161,122c4,16,10,82,14,149c7,116,7,121-11,116c-24-8-395-97-401-97c-2,0-3,7-1,15
		s102,81,223,162l220,148l5,195c4,172,7,199,25,229c11,19,25,36,32,38c6,2,24-13,40-33l28-37l3-199l4-199l219-146
		c201-134,257-182,197-168c-13,3-106,25-208,49c-101,25-187,43-190,41c-8-5,14-267,23-282c4-7,44-34,87-60c44-26,80-52,80-57
		c0-8-63-3-131,11c-28,5-29,4-29-31c0-58,21-290,28-306c7-17,19,86,21,178c1,50,4,62,17,62c15,0,15-38,9-407c-6-387-5-424,20-718
		c32-383,31-378,69-429c33-43,89-86,112-86c12,0,14,162,14,975c0,640,3,975,10,975c6,0,11-339,12-982l3-983l198-49
		c108-27,199-47,202-44s-4,27-15,54c-67,154-84,378-42,542c43,167,116,297,231,413c117,117,257,183,422,198c92,9,113,18,122,53
		c4,14-215,461-728,1487c-785,1571-747,1501-822,1501C2318,6220,2291,6211,2273,6201z"/>
	<path class="st0" d="M5657,4978c-14-14-124-235-262-528c-130-278-239-511-242-517c-8-19,58-16,86,3c13,10,54,82,98,175l76,159
		l220-2l220-3l71-154c45-98,80-161,96-173c21-15,40-18,102-16l77,3l-247,537c-136,296-252,538-259,538S5670,4990,5657,4978z
		 M5728,4538c45-99,81-183,79-185s-83-2-180-1l-176,3l86,183c47,100,91,182,97,182S5682,4638,5728,4538z"/>
	<path class="st0" d="M8664,4990c-186-34-344-147-421-303c-41-82-52-133-53-238c0-141,47-262,146-368c110-119,254-181,421-181
		s295,47,405,148c122,113,182,245,182,402c0,246-170,462-412,524C8853,4995,8731,5002,8664,4990z M8899,4908c98-42,162-120,203-248
		c19-63,23-96,23-210s-4-147-23-209c-39-124-100-202-196-254c-34-18-57-22-141-22c-92,0-104,3-153,29c-143,79-221,266-208,496
		c9,152,41,249,111,335C8597,4927,8770,4964,8899,4908z"/>
	<path class="st0" d="M10742,4983c-18-16-502-1031-502-1054c0-5,15-9,34-9c50,0,73,30,151,199l70,151h220h221l74-161
		c40-88,83-167,94-175c14-9,47-14,99-14c70,0,78,2,73,18c-21,66-487,1058-499,1060C10770,5000,10754,4993,10742,4983z M10815,4531
		l83-181h-179c-98,0-179,3-179,8c-1,21,175,371,182,364C10727,4717,10769,4631,10815,4531z"/>
	<path class="st0" d="M13570,4987c-175-40-271-185-225-343c23-81,98-152,233-224c254-135,322-197,322-292c0-129-175-197-326-126
		c-52,24-128,104-146,154c-13,37-21,38-85,5l-32-16l24-50c32-67,95-129,164-162c101-48,301-44,404,9c100,51,159,144,160,253
		c1,114-67,193-258,300c-209,118-254,146-285,181c-101,116-1,256,173,242c105-9,187-67,231-165c10-24,23-43,28-43c12,0,88,39,88,46
		c0,23-62,122-95,153C13865,4983,13701,5017,13570,4987z"/>
	<path class="st0" d="M11427,4973c-4-3-7-242-7-530v-523h90h90v245v246l62-3l62-3l179-242l179-243h104c57,0,104,3,104,8
		c0,4-83,117-185,252l-184,244l67,32c121,57,177,134,176,245c0,124-82,218-219,254C11882,4972,11441,4987,11427,4973z M11825,4889
		c55-15,120-82,135-139c30-112-33-220-151-259c-19-6-73-12-120-14l-84-2l-3,213l-2,212h92C11743,4900,11803,4895,11825,4889z"/>
	<path class="st0" d="M12257,4973c-4-3-7-21-7-40v-33h190h190v-490v-490h90h90v490v490h190h190v40v40h-463
		C12472,4980,12260,4977,12257,4973z"/>
	<path class="st0" d="M6330,4445v-525h370h370v40v40h-275h-275v228v228h183h182l3,37l3,37h-185h-186v185v185h275h275v35v35h-370
		h-370V4445z"/>
	<path class="st0" d="M7270,4446v-526h90h90v245v245h59h59l179-242l179-243l107-3c59-1,107,0,107,3s-83,116-185,252l-186,247l60,27
		c240,109,250,378,18,485l-62,29l-257,3l-258,3V4446z M7673,4888c64-19,122-82,136-145c18-88-2-148-69-205c-49-43-96-57-205-65
		l-85-6v217v216h91C7592,4900,7651,4894,7673,4888z"/>
	<path class="st0" d="M9570,4446v-526h66c59,0,68,3,95,29l29,29v209v208h157c153,0,160,1,221,29c110,51,164,132,165,248
		c0,125-68,217-201,270c-52,20-77,23-294,26l-238,4V4446z M9948,4875c101-30,156-105,157-215c0-51-6-75-25-110
		c-46-83-168-121-282-89l-38,10v209v210h68C9866,4890,9919,4883,9948,4875z"/>
	<path class="st0" d="M13619,3719c-166-17-279-126-279-272c0-71,25-128,83-186c42-43,79-66,275-176c157-87,203-135,204-213
		c0-53-16-86-54-115c-131-97-327-39-407,121c-12,23-26,42-31,42c-7,0-71-26-88-36c-11-7,44-101,83-143c79-84,211-121,360-100
		c96,13,153,37,209,89c102,94,119,241,41,344c-36,48-123,109-250,177c-136,72-231,135-256,170c-49,70-29,150,50,197
		c38,23,57,27,116,27c115-1,200-57,247-162c10-24,23-43,29-43c15,0,89,40,89,48c0,4-15,34-33,67C13937,3681,13804,3737,13619,3719z"
		/>
	<path class="st0" d="M5428,3710c-199-31-313-216-232-378c37-75,102-127,269-217c175-95,247-154,264-218c28-113-53-192-199-192
		c-62,1-84,5-126,27c-58,30-118,94-136,145c-7,18-17,33-24,33c-10,0-85-28-92-35c-2-2,6-23,18-48c34-72,85-123,158-159
		c65-32,70-33,197-33c122,0,134,2,192,29c69,32,135,95,160,154c9,20,16,67,16,103c1,53-4,73-25,110c-47,81-91,113-348,255
		c-124,68-186,122-201,175c-10,33-9,43,12,85c33,66,79,89,179,89c57-1,85-6,116-22c50-27,105-87,130-141c10-23,22-42,26-42
		c5,0,27,9,49,20c45,24,45,33,4,106C5765,3677,5606,3737,5428,3710z"/>
	<path class="st0" d="M6575,3713c-182-24-354-145-434-304c-154-307,28-683,371-764c291-68,582,78,689,346c26,68,36,220,20,301
		c-30,144-149,292-291,362C6822,3706,6691,3728,6575,3713z M6770,3638c40-13,105-55,136-89c77-87,123-261,111-423
		c-15-201-84-332-211-402c-46-26-60-29-146-29c-79,0-103,4-141,23c-138,68-219,235-219,452c0,121,14,197,51,280
		C6428,3619,6591,3692,6770,3638z"/>
	<path class="st0" d="M11270,3704c-192-50-346-190-401-363c-29-92-29-232,0-322c71-221,303-388,543-389c260-1,500,176,563,415
		c75,291-106,583-410,660C11491,3724,11343,3723,11270,3704z M11530,3643c115-37,207-162,235-319c49-274-39-522-213-602
		c-72-33-196-35-263-4c-156,70-236,245-226,497c7,181,55,302,149,378C11291,3656,11425,3677,11530,3643z"/>
	<path class="st0" d="M7460,3175v-525h350h350v40v40h-260h-260v485v485h-90h-90V3175z"/>
	<path class="st0" d="M8297,3694c-11-12-8-662,4-734c33-205,201-330,442-330c257,1,418,123,448,338c5,37,8,216,7,397l-3,330l-42,3
		l-42,3l-3-383c-3-367-4-385-24-429c-32-70-86-123-155-154c-54-24-70-27-147-23c-67,2-97,8-132,26c-61,32-106,77-138,137l-27,50
		l-5,385l-5,385l-85,3C8343,3699,8301,3698,8297,3694z"/>
	<path class="st0" d="M9340,3660v-40h185h185l1-157c1-87,2-194,4-238c1-44,3-191,4-327l1-248h90h90v485v485h185h185v40v40h-465h-465
		V3660z"/>
	<path class="st0" d="M10432,3178l3-523h90h90l3,523l2,522h-95h-95L10432,3178z"/>
	<path class="st0" d="M12220,3180v-520h45h45l2,401l3,401l364-416c288-330,368-416,387-416h24v535v535h-45h-45l-2-375l-3-374
		l-335,374l-335,375h-52h-53V3180z"/>
	<path class="st0" d="M3730,3064c-414-110-637-592-477-1033c78-217,264-392,472-446c72-19,202-21,282-5c32,6,96,30,143,52
		c115,55,246,184,307,303c77,151,106,300,91,472c-17,192-87,343-223,478c-100,101-187,152-305,179C3939,3083,3802,3083,3730,3064z
		 M4053,3005c54-19,59-30,6-15c-54,16-188,14-258-5c-128-33-232-103-322-215c-55-68-52-84,9-54c56,28,183,26,240-4
		c68-36,117-86,151-156c36-74,39-99,10-112c-17-8-28-1-68,37c-127,122-320,119-446-8l-45-45v-106c0-119,17-205,57-297
		c108-245,344-401,578-381c39,3,81,9,95,12c14,4,22,4,19,0c-29-32-241-48-335-25c-217,51-395,238-471,494c-25,83-25,303,0,395
		c67,248,249,440,472,497C3813,3034,3990,3027,4053,3005z M4050,2964c78-18,90-28,126-107c26-55,29-73,29-162c0-93-2-105-32-165
		c-18-36-50-83-73-105l-40-39l-22,21l-21,22l23,53c36,80,40,218,10,301c-27,74-68,136-112,171l-33,26h40
		C3967,2980,4014,2973,4050,2964z M4459,2588c11-35,25-86,31-115c10-47,9-55-14-102c-57-111-142-171-255-178c-52-4-79,0-124,17
		c-32,12-57,25-55,28c2,4,10,19,17,35c11,21,21,27,47,27c136,0,290,150,310,303c4,26,10,47,14,47C4435,2650,4448,2622,4459,2588z
		 M3974,2394c57-56,10-179-58-155c-43,16-54,113-18,154C3917,2414,3953,2415,3974,2394z M3833,2242c15-16,15-20,1-40
		c-32-46-55-136-55-217c0-115,36-207,112-284l44-43l-55,6c-30,4-79,15-109,24c-45,14-59,24-82,61c-58,91-66,256-16,363
		c25,57,107,148,131,148C3811,2260,3824,2252,3833,2242z M4020,2153c41-56,114-108,173-124c61-16,164-8,216,18c25,13,47,20,49,18
		c6-6-63-145-87-175c-17-22-29-25-101-28c-75-4-86-2-145,27c-71,35-122,89-154,162C3913,2183,3947,2252,4020,2153z"/>
</g>
</svg>
