<?xml version="1.0" encoding="utf-8"?>
<!-- Generator: Adobe Illustrator 24.0.1, SVG Export Plug-In . SVG Version: 6.00 Build 0)  -->
<svg version="1.1" id="Layer_1" xmlns="http://www.w3.org/2000/svg" xmlns:xlink="http://www.w3.org/1999/xlink" x="0px" y="0px"
	 viewBox="0 0 482 266" style="enable-background:new 0 0 482 266;" xml:space="preserve">
<style type="text/css">
	.st0{fill:#1A2E45;}
</style>
<g transform="translate(0.000000,512.000000) scale(0.100000,-0.100000)">
	<path class="st0" d="M58.6,3704.7c19-50,65-102,111-123c40-18,106-19,1941-19h1900l-362-362c-377-378-402-409-403-489
		c0-84,47-159,124-195c62-29,117-30,176-3c61,27,1140,1103,1172,1167c27,57,27,136,0,188c-12,23-256,274-589,605
		c-523,521-572,567-615,579c-152,40-303-106-266-259c10-42,40-76,384-421c206-207,374-379,374-383c0-4-855-7-1900-7
		c-1862,0-1902,0-1939-19C69.6,3913.7,23.6,3802.7,58.6,3704.7z"/>
</g>
</svg>
